<mxfile host="app.diagrams.net" modified="2024-04-07T03:32:27.289Z" agent="Mozilla/5.0 (Windows NT 10.0; Win64; x64) AppleWebKit/537.36 (KHTML, like Gecko) Chrome/123.0.0.0 Safari/537.36" etag="uyXaxjI1mD0yBmImYPm_" version="24.2.2" type="device">
  <diagram name="第 1 页" id="1Kj0VJB6VbQlQJPGPTz4">
    <mxGraphModel dx="3088" dy="1907" grid="1" gridSize="10" guides="1" tooltips="1" connect="1" arrows="1" fold="1" page="1" pageScale="1" pageWidth="827" pageHeight="1169" math="0" shadow="0">
      <root>
        <mxCell id="0" />
        <mxCell id="1" parent="0" />
        <mxCell id="rhgdxMJpOumpOllFAP6a-1" value="&lt;pre style=&quot;color: rgb(169, 183, 198); font-family: &amp;quot;JetBrains Mono&amp;quot;, monospace; font-size: 16px;&quot;&gt;&lt;br style=&quot;font-size: 16px;&quot;&gt;&lt;/pre&gt;" style="text;html=1;fontSize=16;labelBackgroundColor=none;fontStyle=1" parent="1" vertex="1">
          <mxGeometry x="-7" y="50" width="130" height="70" as="geometry" />
        </mxCell>
        <mxCell id="rhgdxMJpOumpOllFAP6a-3" value="&lt;pre style=&quot;color: rgb(169, 183, 198); font-family: &amp;quot;JetBrains Mono&amp;quot;, monospace; font-size: 16px;&quot;&gt;&lt;br style=&quot;font-size: 16px;&quot;&gt;&lt;/pre&gt;" style="text;html=1;fontSize=16;labelBackgroundColor=none;fontStyle=1" parent="1" vertex="1">
          <mxGeometry x="193" y="180" width="240" height="70" as="geometry" />
        </mxCell>
        <mxCell id="rhgdxMJpOumpOllFAP6a-8" value="&lt;pre style=&quot;border-color: var(--border-color); text-align: left; color: rgb(169, 183, 198); font-family: &amp;quot;JetBrains Mono&amp;quot;, monospace; font-size: 16px;&quot;&gt;Camera2Wrapper&lt;/pre&gt;" style="rounded=0;html=1;fontSize=16;labelBackgroundColor=none;fontStyle=1" parent="1" vertex="1">
          <mxGeometry x="-837" y="60" width="170" height="60" as="geometry" />
        </mxCell>
        <mxCell id="rhgdxMJpOumpOllFAP6a-9" value="&lt;pre style=&quot;border-color: var(--border-color); text-align: left; color: rgb(169, 183, 198); font-family: &amp;quot;JetBrains Mono&amp;quot;, monospace; font-size: 16px;&quot;&gt;initCamera2Wrapper&lt;/pre&gt;" style="rounded=0;html=1;fontSize=16;labelBackgroundColor=none;fontStyle=1" parent="1" vertex="1">
          <mxGeometry x="-834.5" y="180" width="175" height="60" as="geometry" />
        </mxCell>
        <UserObject label="&lt;pre style=&quot;background-color:#2b2b2b;color:#a9b7c6;font-family:&#39;JetBrains Mono&#39;,monospace;font-size:9.8pt;&quot;&gt;&lt;span style=&quot;color:#cc7832;&quot;&gt;private boolean &lt;/span&gt;&lt;span style=&quot;color:#ffc66d;&quot;&gt;checkCameraIdSupport&lt;/span&gt;(String cameraId) {&lt;br&gt;    &lt;span style=&quot;color:#cc7832;&quot;&gt;boolean &lt;/span&gt;isSupported = &lt;span style=&quot;color:#cc7832;&quot;&gt;false;&lt;br&gt;&lt;/span&gt;&lt;span style=&quot;color:#cc7832;&quot;&gt;    for &lt;/span&gt;(String id : &lt;span style=&quot;color:#9876aa;&quot;&gt;mSupportCameraIds&lt;/span&gt;) {&lt;br&gt;        &lt;span style=&quot;color:#cc7832;&quot;&gt;if &lt;/span&gt;(cameraId.equals(id)) {&lt;br&gt;            isSupported = &lt;span style=&quot;color:#cc7832;&quot;&gt;true;&lt;br&gt;&lt;/span&gt;&lt;span style=&quot;color:#cc7832;&quot;&gt;        &lt;/span&gt;}&lt;br&gt;    }&lt;br&gt;    &lt;span style=&quot;color:#cc7832;&quot;&gt;return &lt;/span&gt;isSupported&lt;span style=&quot;color:#cc7832;&quot;&gt;;&lt;br&gt;&lt;/span&gt;}&lt;/pre&gt;" link="&lt;pre style=&quot;background-color:#2b2b2b;color:#a9b7c6;font-family:&#39;JetBrains Mono&#39;,monospace;font-size:9.8pt;&quot;&gt;&lt;span style=&quot;color:#cc7832;&quot;&gt;private boolean &lt;/span&gt;&lt;span style=&quot;color:#ffc66d;&quot;&gt;checkCameraIdSupport&lt;/span&gt;(String cameraId) {&lt;br&gt;    &lt;span style=&quot;color:#cc7832;&quot;&gt;boolean &lt;/span&gt;isSupported = &lt;span style=&quot;color:#cc7832;&quot;&gt;false;&lt;br&gt;&lt;/span&gt;&lt;span style=&quot;color:#cc7832;&quot;&gt;    for &lt;/span&gt;(String id : &lt;span style=&quot;color:#9876aa;&quot;&gt;mSupportCameraIds&lt;/span&gt;) {&lt;br&gt;        &lt;span style=&quot;color:#cc7832;&quot;&gt;if &lt;/span&gt;(cameraId.equals(id)) {&lt;br&gt;            isSupported = &lt;span style=&quot;color:#cc7832;&quot;&gt;true;&lt;br&gt;&lt;/span&gt;&lt;span style=&quot;color:#cc7832;&quot;&gt;        &lt;/span&gt;}&lt;br&gt;    }&lt;br&gt;    &lt;span style=&quot;color:#cc7832;&quot;&gt;return &lt;/span&gt;isSupported&lt;span style=&quot;color:#cc7832;&quot;&gt;;&lt;br&gt;&lt;/span&gt;}&lt;/pre&gt;" id="cEB_1FA1UiQfRC9kqUsY-1">
          <mxCell style="text;whiteSpace=wrap;html=1;" vertex="1" parent="1">
            <mxGeometry x="360" y="-20" width="420" height="190" as="geometry" />
          </mxCell>
        </UserObject>
        <UserObject label="&lt;pre style=&quot;background-color:#2b2b2b;color:#a9b7c6;font-family:&#39;JetBrains Mono&#39;,monospace;font-size:9.8pt;&quot;&gt;&lt;span style=&quot;color:#cc7832;&quot;&gt;private void &lt;/span&gt;&lt;span style=&quot;color:#ffc66d;&quot;&gt;getCameraInfo&lt;/span&gt;(String cameraId) {&lt;br&gt;    CameraCharacteristics cameraCharacteristics = &lt;span style=&quot;color:#cc7832;&quot;&gt;null;&lt;br&gt;&lt;/span&gt;&lt;span style=&quot;color:#cc7832;&quot;&gt;    try &lt;/span&gt;{&lt;br&gt;        cameraCharacteristics = &lt;span style=&quot;color:#9876aa;&quot;&gt;mCameraManager&lt;/span&gt;.getCameraCharacteristics(cameraId)&lt;span style=&quot;color:#cc7832;&quot;&gt;;&lt;br&gt;&lt;/span&gt;&lt;span style=&quot;color:#cc7832;&quot;&gt;    &lt;/span&gt;} &lt;span style=&quot;color:#cc7832;&quot;&gt;catch &lt;/span&gt;(CameraAccessException e) {&lt;br&gt;        e.printStackTrace()&lt;span style=&quot;color:#cc7832;&quot;&gt;;&lt;br&gt;&lt;/span&gt;&lt;span style=&quot;color:#cc7832;&quot;&gt;    &lt;/span&gt;}&lt;br&gt;    StreamConfigurationMap streamConfigurationMap = cameraCharacteristics.get(CameraCharacteristics.&lt;span style=&quot;color:#9876aa;font-style:italic;&quot;&gt;SCALER_STREAM_CONFIGURATION_MAP&lt;/span&gt;)&lt;span style=&quot;color:#cc7832;&quot;&gt;;&lt;br&gt;&lt;/span&gt;&lt;span style=&quot;color:#cc7832;&quot;&gt;    if &lt;/span&gt;(streamConfigurationMap != &lt;span style=&quot;color:#cc7832;&quot;&gt;null&lt;/span&gt;) {&lt;br&gt;        &lt;span style=&quot;color:#9876aa;&quot;&gt;mSupportPreviewSize &lt;/span&gt;= Arrays.&lt;span style=&quot;font-style:italic;&quot;&gt;asList&lt;/span&gt;(streamConfigurationMap.getOutputSizes(SurfaceTexture.&lt;span style=&quot;color:#cc7832;&quot;&gt;class&lt;/span&gt;))&lt;span style=&quot;color:#cc7832;&quot;&gt;;&lt;br&gt;&lt;/span&gt;&lt;span style=&quot;color:#cc7832;&quot;&gt;&lt;br&gt;&lt;/span&gt;&lt;span style=&quot;color:#cc7832;&quot;&gt;        boolean &lt;/span&gt;supportDefaultSize = &lt;span style=&quot;color:#cc7832;&quot;&gt;false;&lt;br&gt;&lt;/span&gt;&lt;span style=&quot;color:#cc7832;&quot;&gt;        &lt;/span&gt;Size sameRatioSize = &lt;span style=&quot;color:#cc7832;&quot;&gt;null;&lt;br&gt;&lt;/span&gt;&lt;span style=&quot;color:#cc7832;&quot;&gt;        float &lt;/span&gt;defaultRatio = &lt;span style=&quot;color:#9876aa;&quot;&gt;mDefaultPreviewSize&lt;/span&gt;.getWidth() * &lt;span style=&quot;color:#6897bb;&quot;&gt;1.0f &lt;/span&gt;/ &lt;span style=&quot;color:#9876aa;&quot;&gt;mDefaultPreviewSize&lt;/span&gt;.getHeight()&lt;span style=&quot;color:#cc7832;&quot;&gt;;&lt;br&gt;&lt;/span&gt;&lt;span style=&quot;color:#cc7832;&quot;&gt;        &lt;/span&gt;&lt;span style=&quot;color:#9876aa;&quot;&gt;mPreviewSize &lt;/span&gt;= &lt;span style=&quot;color:#9876aa;&quot;&gt;mSupportPreviewSize&lt;/span&gt;.get(&lt;span style=&quot;color:#9876aa;&quot;&gt;mSupportPreviewSize&lt;/span&gt;.size() / &lt;span style=&quot;color:#6897bb;&quot;&gt;2&lt;/span&gt;)&lt;span style=&quot;color:#cc7832;&quot;&gt;;&lt;br&gt;&lt;/span&gt;&lt;span style=&quot;color:#cc7832;&quot;&gt;&lt;br&gt;&lt;/span&gt;&lt;span style=&quot;color:#cc7832;&quot;&gt;        for &lt;/span&gt;(Size size : &lt;span style=&quot;color:#9876aa;&quot;&gt;mSupportPreviewSize&lt;/span&gt;) {&lt;br&gt;            Log.&lt;span style=&quot;font-style:italic;&quot;&gt;d&lt;/span&gt;(&lt;span style=&quot;color:#9876aa;font-style:italic;&quot;&gt;TAG&lt;/span&gt;&lt;span style=&quot;color:#cc7832;&quot;&gt;, &lt;/span&gt;&lt;span style=&quot;color:#6a8759;&quot;&gt;&quot;initCamera2Wrapper() called mSupportPreviewSize &quot; &lt;/span&gt;+ size.getWidth() + &lt;span style=&quot;color:#6a8759;&quot;&gt;&quot;x&quot; &lt;/span&gt;+ size.getHeight())&lt;span style=&quot;color:#cc7832;&quot;&gt;;&lt;br&gt;&lt;/span&gt;&lt;span style=&quot;color:#cc7832;&quot;&gt;            float &lt;/span&gt;ratio = size.getWidth() * &lt;span style=&quot;color:#6897bb;&quot;&gt;1.0f &lt;/span&gt;/ size.getHeight()&lt;span style=&quot;color:#cc7832;&quot;&gt;;&lt;br&gt;&lt;/span&gt;&lt;span style=&quot;color:#cc7832;&quot;&gt;&lt;br&gt;&lt;/span&gt;&lt;span style=&quot;color:#cc7832;&quot;&gt;            if &lt;/span&gt;(Math.&lt;span style=&quot;font-style:italic;&quot;&gt;abs&lt;/span&gt;(ratio - defaultRatio) &amp;lt; &lt;span style=&quot;color:#9876aa;&quot;&gt;THRESHOLD&lt;/span&gt;) {&lt;br&gt;                sameRatioSize = size&lt;span style=&quot;color:#cc7832;&quot;&gt;;&lt;br&gt;&lt;/span&gt;&lt;span style=&quot;color:#cc7832;&quot;&gt;            &lt;/span&gt;}&lt;br&gt;&lt;br&gt;            &lt;span style=&quot;color:#cc7832;&quot;&gt;if &lt;/span&gt;(&lt;span style=&quot;color:#9876aa;&quot;&gt;mDefaultPreviewSize&lt;/span&gt;.getWidth() == size.getWidth() &amp;amp;&amp;amp; &lt;span style=&quot;color:#9876aa;&quot;&gt;mDefaultPreviewSize&lt;/span&gt;.getHeight() == size.getHeight()) {&lt;br&gt;                Log.&lt;span style=&quot;font-style:italic;&quot;&gt;d&lt;/span&gt;(&lt;span style=&quot;color:#9876aa;font-style:italic;&quot;&gt;TAG&lt;/span&gt;&lt;span style=&quot;color:#cc7832;&quot;&gt;, &lt;/span&gt;&lt;span style=&quot;color:#6a8759;&quot;&gt;&quot;initCamera2Wrapper() called supportDefaultSize &quot;&lt;/span&gt;)&lt;span style=&quot;color:#cc7832;&quot;&gt;;&lt;br&gt;&lt;/span&gt;&lt;span style=&quot;color:#cc7832;&quot;&gt;                &lt;/span&gt;supportDefaultSize = &lt;span style=&quot;color:#cc7832;&quot;&gt;true;&lt;br&gt;&lt;/span&gt;&lt;span style=&quot;color:#cc7832;&quot;&gt;                break;&lt;br&gt;&lt;/span&gt;&lt;span style=&quot;color:#cc7832;&quot;&gt;            &lt;/span&gt;}&lt;br&gt;        }&lt;br&gt;        &lt;span style=&quot;color:#cc7832;&quot;&gt;if &lt;/span&gt;(supportDefaultSize) {&lt;br&gt;            &lt;span style=&quot;color:#9876aa;&quot;&gt;mPreviewSize &lt;/span&gt;= &lt;span style=&quot;color:#9876aa;&quot;&gt;mDefaultPreviewSize&lt;/span&gt;&lt;span style=&quot;color:#cc7832;&quot;&gt;;&lt;br&gt;&lt;/span&gt;&lt;span style=&quot;color:#cc7832;&quot;&gt;        &lt;/span&gt;} &lt;span style=&quot;color:#cc7832;&quot;&gt;else if &lt;/span&gt;(sameRatioSize != &lt;span style=&quot;color:#cc7832;&quot;&gt;null&lt;/span&gt;) {&lt;br&gt;            &lt;span style=&quot;color:#9876aa;&quot;&gt;mPreviewSize &lt;/span&gt;= sameRatioSize&lt;span style=&quot;color:#cc7832;&quot;&gt;;&lt;br&gt;&lt;/span&gt;&lt;span style=&quot;color:#cc7832;&quot;&gt;        &lt;/span&gt;}&lt;br&gt;        Log.&lt;span style=&quot;font-style:italic;&quot;&gt;e&lt;/span&gt;(&lt;span style=&quot;color:#9876aa;font-style:italic;&quot;&gt;TAG&lt;/span&gt;&lt;span style=&quot;color:#cc7832;&quot;&gt;, &lt;/span&gt;&lt;span style=&quot;color:#6a8759;&quot;&gt;&quot;mPreviewSize: &quot; &lt;/span&gt;+ &lt;span style=&quot;color:#9876aa;&quot;&gt;mPreviewSize&lt;/span&gt;)&lt;span style=&quot;color:#cc7832;&quot;&gt;;&lt;br&gt;&lt;/span&gt;&lt;span style=&quot;color:#cc7832;&quot;&gt;        &lt;/span&gt;supportDefaultSize = &lt;span style=&quot;color:#cc7832;&quot;&gt;false;&lt;br&gt;&lt;/span&gt;&lt;span style=&quot;color:#cc7832;&quot;&gt;        &lt;/span&gt;sameRatioSize = &lt;span style=&quot;color:#cc7832;&quot;&gt;null;&lt;br&gt;&lt;/span&gt;&lt;span style=&quot;color:#cc7832;&quot;&gt;        &lt;/span&gt;defaultRatio = &lt;span style=&quot;color:#9876aa;&quot;&gt;mDefaultCaptureSize&lt;/span&gt;.getWidth() * &lt;span style=&quot;color:#6897bb;&quot;&gt;1.0f &lt;/span&gt;/ &lt;span style=&quot;color:#9876aa;&quot;&gt;mDefaultCaptureSize&lt;/span&gt;.getHeight()&lt;span style=&quot;color:#cc7832;&quot;&gt;;&lt;br&gt;&lt;/span&gt;&lt;span style=&quot;color:#cc7832;&quot;&gt;        &lt;/span&gt;&lt;span style=&quot;color:#9876aa;&quot;&gt;mSupportPictureSize &lt;/span&gt;= Arrays.&lt;span style=&quot;font-style:italic;&quot;&gt;asList&lt;/span&gt;(streamConfigurationMap.getOutputSizes(ImageFormat.&lt;span style=&quot;color:#9876aa;font-style:italic;&quot;&gt;YUV_420_888&lt;/span&gt;))&lt;span style=&quot;color:#cc7832;&quot;&gt;;&lt;br&gt;&lt;/span&gt;&lt;span style=&quot;color:#cc7832;&quot;&gt;        &lt;/span&gt;&lt;span style=&quot;color:#9876aa;&quot;&gt;mPictureSize &lt;/span&gt;= &lt;span style=&quot;color:#9876aa;&quot;&gt;mSupportPictureSize&lt;/span&gt;.get(&lt;span style=&quot;color:#6897bb;&quot;&gt;0&lt;/span&gt;)&lt;span style=&quot;color:#cc7832;&quot;&gt;;&lt;br&gt;&lt;/span&gt;&lt;span style=&quot;color:#cc7832;&quot;&gt;        for &lt;/span&gt;(Size size : &lt;span style=&quot;color:#9876aa;&quot;&gt;mSupportPictureSize&lt;/span&gt;) {&lt;br&gt;            Log.&lt;span style=&quot;font-style:italic;&quot;&gt;d&lt;/span&gt;(&lt;span style=&quot;color:#9876aa;font-style:italic;&quot;&gt;TAG&lt;/span&gt;&lt;span style=&quot;color:#cc7832;&quot;&gt;, &lt;/span&gt;&lt;span style=&quot;color:#6a8759;&quot;&gt;&quot;initCamera2Wrapper() called mSupportPictureSize &quot; &lt;/span&gt;+ size.getWidth() + &lt;span style=&quot;color:#6a8759;&quot;&gt;&quot;x&quot; &lt;/span&gt;+ size.getHeight())&lt;span style=&quot;color:#cc7832;&quot;&gt;;&lt;br&gt;&lt;/span&gt;&lt;span style=&quot;color:#cc7832;&quot;&gt;            float &lt;/span&gt;ratio = size.getWidth() * &lt;span style=&quot;color:#6897bb;&quot;&gt;1.0f &lt;/span&gt;/ size.getHeight()&lt;span style=&quot;color:#cc7832;&quot;&gt;;&lt;br&gt;&lt;/span&gt;&lt;span style=&quot;color:#cc7832;&quot;&gt;            if &lt;/span&gt;(Math.&lt;span style=&quot;font-style:italic;&quot;&gt;abs&lt;/span&gt;(ratio - defaultRatio) &amp;lt; &lt;span style=&quot;color:#9876aa;&quot;&gt;THRESHOLD&lt;/span&gt;) {&lt;br&gt;                sameRatioSize = size&lt;span style=&quot;color:#cc7832;&quot;&gt;;&lt;br&gt;&lt;/span&gt;&lt;span style=&quot;color:#cc7832;&quot;&gt;            &lt;/span&gt;}&lt;br&gt;            &lt;span style=&quot;color:#cc7832;&quot;&gt;if &lt;/span&gt;(&lt;span style=&quot;color:#9876aa;&quot;&gt;mDefaultCaptureSize&lt;/span&gt;.getWidth() == size.getWidth() &amp;amp;&amp;amp; &lt;span style=&quot;color:#9876aa;&quot;&gt;mDefaultCaptureSize&lt;/span&gt;.getHeight() == size.getHeight()) {&lt;br&gt;                supportDefaultSize = &lt;span style=&quot;color:#cc7832;&quot;&gt;true;&lt;br&gt;&lt;/span&gt;&lt;span style=&quot;color:#cc7832;&quot;&gt;                break;&lt;br&gt;&lt;/span&gt;&lt;span style=&quot;color:#cc7832;&quot;&gt;            &lt;/span&gt;}&lt;br&gt;        }&lt;br&gt;        &lt;span style=&quot;color:#cc7832;&quot;&gt;if &lt;/span&gt;(supportDefaultSize) {&lt;br&gt;            &lt;span style=&quot;color:#9876aa;&quot;&gt;mPictureSize &lt;/span&gt;= &lt;span style=&quot;color:#9876aa;&quot;&gt;mDefaultCaptureSize&lt;/span&gt;&lt;span style=&quot;color:#cc7832;&quot;&gt;;&lt;br&gt;&lt;/span&gt;&lt;span style=&quot;color:#cc7832;&quot;&gt;        &lt;/span&gt;} &lt;span style=&quot;color:#cc7832;&quot;&gt;else if &lt;/span&gt;(sameRatioSize != &lt;span style=&quot;color:#cc7832;&quot;&gt;null&lt;/span&gt;) {&lt;br&gt;            &lt;span style=&quot;color:#9876aa;&quot;&gt;mPictureSize &lt;/span&gt;= sameRatioSize&lt;span style=&quot;color:#cc7832;&quot;&gt;;&lt;br&gt;&lt;/span&gt;&lt;span style=&quot;color:#cc7832;&quot;&gt;        &lt;/span&gt;}&lt;br&gt;        Log.&lt;span style=&quot;font-style:italic;&quot;&gt;e&lt;/span&gt;(&lt;span style=&quot;color:#9876aa;font-style:italic;&quot;&gt;TAG&lt;/span&gt;&lt;span style=&quot;color:#cc7832;&quot;&gt;, &lt;/span&gt;&lt;span style=&quot;color:#6a8759;&quot;&gt;&quot;mPictureSize: &quot; &lt;/span&gt;+ &lt;span style=&quot;color:#9876aa;&quot;&gt;mPictureSize&lt;/span&gt;)&lt;span style=&quot;color:#cc7832;&quot;&gt;;&lt;br&gt;&lt;/span&gt;&lt;span style=&quot;color:#cc7832;&quot;&gt;    &lt;/span&gt;}&lt;br&gt;    &lt;span style=&quot;color:#9876aa;&quot;&gt;mSensorOrientation &lt;/span&gt;= cameraCharacteristics.get(CameraCharacteristics.&lt;span style=&quot;color:#9876aa;font-style:italic;&quot;&gt;SENSOR_ORIENTATION&lt;/span&gt;)&lt;span style=&quot;color:#cc7832;&quot;&gt;;&lt;br&gt;&lt;/span&gt;&lt;span style=&quot;color:#cc7832;&quot;&gt;    &lt;/span&gt;Log.&lt;span style=&quot;font-style:italic;&quot;&gt;d&lt;/span&gt;(&lt;span style=&quot;color:#9876aa;font-style:italic;&quot;&gt;TAG&lt;/span&gt;&lt;span style=&quot;color:#cc7832;&quot;&gt;, &lt;/span&gt;&lt;span style=&quot;color:#6a8759;&quot;&gt;&quot;initCamera2Wrapper() called mSensorOrientation = &quot; &lt;/span&gt;+ &lt;span style=&quot;color:#9876aa;&quot;&gt;mSensorOrientation&lt;/span&gt;)&lt;span style=&quot;color:#cc7832;&quot;&gt;;&lt;br&gt;&lt;/span&gt;}&lt;/pre&gt;" link="&lt;pre style=&quot;background-color:#2b2b2b;color:#a9b7c6;font-family:&#39;JetBrains Mono&#39;,monospace;font-size:9.8pt;&quot;&gt;&lt;span style=&quot;color:#cc7832;&quot;&gt;private void &lt;/span&gt;&lt;span style=&quot;color:#ffc66d;&quot;&gt;getCameraInfo&lt;/span&gt;(String cameraId) {&lt;br&gt;    CameraCharacteristics cameraCharacteristics = &lt;span style=&quot;color:#cc7832;&quot;&gt;null;&lt;br&gt;&lt;/span&gt;&lt;span style=&quot;color:#cc7832;&quot;&gt;    try &lt;/span&gt;{&lt;br&gt;        cameraCharacteristics = &lt;span style=&quot;color:#9876aa;&quot;&gt;mCameraManager&lt;/span&gt;.getCameraCharacteristics(cameraId)&lt;span style=&quot;color:#cc7832;&quot;&gt;;&lt;br&gt;&lt;/span&gt;&lt;span style=&quot;color:#cc7832;&quot;&gt;    &lt;/span&gt;} &lt;span style=&quot;color:#cc7832;&quot;&gt;catch &lt;/span&gt;(CameraAccessException e) {&lt;br&gt;        e.printStackTrace()&lt;span style=&quot;color:#cc7832;&quot;&gt;;&lt;br&gt;&lt;/span&gt;&lt;span style=&quot;color:#cc7832;&quot;&gt;    &lt;/span&gt;}&lt;br&gt;    StreamConfigurationMap streamConfigurationMap = cameraCharacteristics.get(CameraCharacteristics.&lt;span style=&quot;color:#9876aa;font-style:italic;&quot;&gt;SCALER_STREAM_CONFIGURATION_MAP&lt;/span&gt;)&lt;span style=&quot;color:#cc7832;&quot;&gt;;&lt;br&gt;&lt;/span&gt;&lt;span style=&quot;color:#cc7832;&quot;&gt;    if &lt;/span&gt;(streamConfigurationMap != &lt;span style=&quot;color:#cc7832;&quot;&gt;null&lt;/span&gt;) {&lt;br&gt;        &lt;span style=&quot;color:#9876aa;&quot;&gt;mSupportPreviewSize &lt;/span&gt;= Arrays.&lt;span style=&quot;font-style:italic;&quot;&gt;asList&lt;/span&gt;(streamConfigurationMap.getOutputSizes(SurfaceTexture.&lt;span style=&quot;color:#cc7832;&quot;&gt;class&lt;/span&gt;))&lt;span style=&quot;color:#cc7832;&quot;&gt;;&lt;br&gt;&lt;/span&gt;&lt;span style=&quot;color:#cc7832;&quot;&gt;&lt;br&gt;&lt;/span&gt;&lt;span style=&quot;color:#cc7832;&quot;&gt;        boolean &lt;/span&gt;supportDefaultSize = &lt;span style=&quot;color:#cc7832;&quot;&gt;false;&lt;br&gt;&lt;/span&gt;&lt;span style=&quot;color:#cc7832;&quot;&gt;        &lt;/span&gt;Size sameRatioSize = &lt;span style=&quot;color:#cc7832;&quot;&gt;null;&lt;br&gt;&lt;/span&gt;&lt;span style=&quot;color:#cc7832;&quot;&gt;        float &lt;/span&gt;defaultRatio = &lt;span style=&quot;color:#9876aa;&quot;&gt;mDefaultPreviewSize&lt;/span&gt;.getWidth() * &lt;span style=&quot;color:#6897bb;&quot;&gt;1.0f &lt;/span&gt;/ &lt;span style=&quot;color:#9876aa;&quot;&gt;mDefaultPreviewSize&lt;/span&gt;.getHeight()&lt;span style=&quot;color:#cc7832;&quot;&gt;;&lt;br&gt;&lt;/span&gt;&lt;span style=&quot;color:#cc7832;&quot;&gt;        &lt;/span&gt;&lt;span style=&quot;color:#9876aa;&quot;&gt;mPreviewSize &lt;/span&gt;= &lt;span style=&quot;color:#9876aa;&quot;&gt;mSupportPreviewSize&lt;/span&gt;.get(&lt;span style=&quot;color:#9876aa;&quot;&gt;mSupportPreviewSize&lt;/span&gt;.size() / &lt;span style=&quot;color:#6897bb;&quot;&gt;2&lt;/span&gt;)&lt;span style=&quot;color:#cc7832;&quot;&gt;;&lt;br&gt;&lt;/span&gt;&lt;span style=&quot;color:#cc7832;&quot;&gt;&lt;br&gt;&lt;/span&gt;&lt;span style=&quot;color:#cc7832;&quot;&gt;        for &lt;/span&gt;(Size size : &lt;span style=&quot;color:#9876aa;&quot;&gt;mSupportPreviewSize&lt;/span&gt;) {&lt;br&gt;            Log.&lt;span style=&quot;font-style:italic;&quot;&gt;d&lt;/span&gt;(&lt;span style=&quot;color:#9876aa;font-style:italic;&quot;&gt;TAG&lt;/span&gt;&lt;span style=&quot;color:#cc7832;&quot;&gt;, &lt;/span&gt;&lt;span style=&quot;color:#6a8759;&quot;&gt;&quot;initCamera2Wrapper() called mSupportPreviewSize &quot; &lt;/span&gt;+ size.getWidth() + &lt;span style=&quot;color:#6a8759;&quot;&gt;&quot;x&quot; &lt;/span&gt;+ size.getHeight())&lt;span style=&quot;color:#cc7832;&quot;&gt;;&lt;br&gt;&lt;/span&gt;&lt;span style=&quot;color:#cc7832;&quot;&gt;            float &lt;/span&gt;ratio = size.getWidth() * &lt;span style=&quot;color:#6897bb;&quot;&gt;1.0f &lt;/span&gt;/ size.getHeight()&lt;span style=&quot;color:#cc7832;&quot;&gt;;&lt;br&gt;&lt;/span&gt;&lt;span style=&quot;color:#cc7832;&quot;&gt;&lt;br&gt;&lt;/span&gt;&lt;span style=&quot;color:#cc7832;&quot;&gt;            if &lt;/span&gt;(Math.&lt;span style=&quot;font-style:italic;&quot;&gt;abs&lt;/span&gt;(ratio - defaultRatio) &amp;lt; &lt;span style=&quot;color:#9876aa;&quot;&gt;THRESHOLD&lt;/span&gt;) {&lt;br&gt;                sameRatioSize = size&lt;span style=&quot;color:#cc7832;&quot;&gt;;&lt;br&gt;&lt;/span&gt;&lt;span style=&quot;color:#cc7832;&quot;&gt;            &lt;/span&gt;}&lt;br&gt;&lt;br&gt;            &lt;span style=&quot;color:#cc7832;&quot;&gt;if &lt;/span&gt;(&lt;span style=&quot;color:#9876aa;&quot;&gt;mDefaultPreviewSize&lt;/span&gt;.getWidth() == size.getWidth() &amp;amp;&amp;amp; &lt;span style=&quot;color:#9876aa;&quot;&gt;mDefaultPreviewSize&lt;/span&gt;.getHeight() == size.getHeight()) {&lt;br&gt;                Log.&lt;span style=&quot;font-style:italic;&quot;&gt;d&lt;/span&gt;(&lt;span style=&quot;color:#9876aa;font-style:italic;&quot;&gt;TAG&lt;/span&gt;&lt;span style=&quot;color:#cc7832;&quot;&gt;, &lt;/span&gt;&lt;span style=&quot;color:#6a8759;&quot;&gt;&quot;initCamera2Wrapper() called supportDefaultSize &quot;&lt;/span&gt;)&lt;span style=&quot;color:#cc7832;&quot;&gt;;&lt;br&gt;&lt;/span&gt;&lt;span style=&quot;color:#cc7832;&quot;&gt;                &lt;/span&gt;supportDefaultSize = &lt;span style=&quot;color:#cc7832;&quot;&gt;true;&lt;br&gt;&lt;/span&gt;&lt;span style=&quot;color:#cc7832;&quot;&gt;                break;&lt;br&gt;&lt;/span&gt;&lt;span style=&quot;color:#cc7832;&quot;&gt;            &lt;/span&gt;}&lt;br&gt;        }&lt;br&gt;        &lt;span style=&quot;color:#cc7832;&quot;&gt;if &lt;/span&gt;(supportDefaultSize) {&lt;br&gt;            &lt;span style=&quot;color:#9876aa;&quot;&gt;mPreviewSize &lt;/span&gt;= &lt;span style=&quot;color:#9876aa;&quot;&gt;mDefaultPreviewSize&lt;/span&gt;&lt;span style=&quot;color:#cc7832;&quot;&gt;;&lt;br&gt;&lt;/span&gt;&lt;span style=&quot;color:#cc7832;&quot;&gt;        &lt;/span&gt;} &lt;span style=&quot;color:#cc7832;&quot;&gt;else if &lt;/span&gt;(sameRatioSize != &lt;span style=&quot;color:#cc7832;&quot;&gt;null&lt;/span&gt;) {&lt;br&gt;            &lt;span style=&quot;color:#9876aa;&quot;&gt;mPreviewSize &lt;/span&gt;= sameRatioSize&lt;span style=&quot;color:#cc7832;&quot;&gt;;&lt;br&gt;&lt;/span&gt;&lt;span style=&quot;color:#cc7832;&quot;&gt;        &lt;/span&gt;}&lt;br&gt;        Log.&lt;span style=&quot;font-style:italic;&quot;&gt;e&lt;/span&gt;(&lt;span style=&quot;color:#9876aa;font-style:italic;&quot;&gt;TAG&lt;/span&gt;&lt;span style=&quot;color:#cc7832;&quot;&gt;, &lt;/span&gt;&lt;span style=&quot;color:#6a8759;&quot;&gt;&quot;mPreviewSize: &quot; &lt;/span&gt;+ &lt;span style=&quot;color:#9876aa;&quot;&gt;mPreviewSize&lt;/span&gt;)&lt;span style=&quot;color:#cc7832;&quot;&gt;;&lt;br&gt;&lt;/span&gt;&lt;span style=&quot;color:#cc7832;&quot;&gt;        &lt;/span&gt;supportDefaultSize = &lt;span style=&quot;color:#cc7832;&quot;&gt;false;&lt;br&gt;&lt;/span&gt;&lt;span style=&quot;color:#cc7832;&quot;&gt;        &lt;/span&gt;sameRatioSize = &lt;span style=&quot;color:#cc7832;&quot;&gt;null;&lt;br&gt;&lt;/span&gt;&lt;span style=&quot;color:#cc7832;&quot;&gt;        &lt;/span&gt;defaultRatio = &lt;span style=&quot;color:#9876aa;&quot;&gt;mDefaultCaptureSize&lt;/span&gt;.getWidth() * &lt;span style=&quot;color:#6897bb;&quot;&gt;1.0f &lt;/span&gt;/ &lt;span style=&quot;color:#9876aa;&quot;&gt;mDefaultCaptureSize&lt;/span&gt;.getHeight()&lt;span style=&quot;color:#cc7832;&quot;&gt;;&lt;br&gt;&lt;/span&gt;&lt;span style=&quot;color:#cc7832;&quot;&gt;        &lt;/span&gt;&lt;span style=&quot;color:#9876aa;&quot;&gt;mSupportPictureSize &lt;/span&gt;= Arrays.&lt;span style=&quot;font-style:italic;&quot;&gt;asList&lt;/span&gt;(streamConfigurationMap.getOutputSizes(ImageFormat.&lt;span style=&quot;color:#9876aa;font-style:italic;&quot;&gt;YUV_420_888&lt;/span&gt;))&lt;span style=&quot;color:#cc7832;&quot;&gt;;&lt;br&gt;&lt;/span&gt;&lt;span style=&quot;color:#cc7832;&quot;&gt;        &lt;/span&gt;&lt;span style=&quot;color:#9876aa;&quot;&gt;mPictureSize &lt;/span&gt;= &lt;span style=&quot;color:#9876aa;&quot;&gt;mSupportPictureSize&lt;/span&gt;.get(&lt;span style=&quot;color:#6897bb;&quot;&gt;0&lt;/span&gt;)&lt;span style=&quot;color:#cc7832;&quot;&gt;;&lt;br&gt;&lt;/span&gt;&lt;span style=&quot;color:#cc7832;&quot;&gt;        for &lt;/span&gt;(Size size : &lt;span style=&quot;color:#9876aa;&quot;&gt;mSupportPictureSize&lt;/span&gt;) {&lt;br&gt;            Log.&lt;span style=&quot;font-style:italic;&quot;&gt;d&lt;/span&gt;(&lt;span style=&quot;color:#9876aa;font-style:italic;&quot;&gt;TAG&lt;/span&gt;&lt;span style=&quot;color:#cc7832;&quot;&gt;, &lt;/span&gt;&lt;span style=&quot;color:#6a8759;&quot;&gt;&quot;initCamera2Wrapper() called mSupportPictureSize &quot; &lt;/span&gt;+ size.getWidth() + &lt;span style=&quot;color:#6a8759;&quot;&gt;&quot;x&quot; &lt;/span&gt;+ size.getHeight())&lt;span style=&quot;color:#cc7832;&quot;&gt;;&lt;br&gt;&lt;/span&gt;&lt;span style=&quot;color:#cc7832;&quot;&gt;            float &lt;/span&gt;ratio = size.getWidth() * &lt;span style=&quot;color:#6897bb;&quot;&gt;1.0f &lt;/span&gt;/ size.getHeight()&lt;span style=&quot;color:#cc7832;&quot;&gt;;&lt;br&gt;&lt;/span&gt;&lt;span style=&quot;color:#cc7832;&quot;&gt;            if &lt;/span&gt;(Math.&lt;span style=&quot;font-style:italic;&quot;&gt;abs&lt;/span&gt;(ratio - defaultRatio) &amp;lt; &lt;span style=&quot;color:#9876aa;&quot;&gt;THRESHOLD&lt;/span&gt;) {&lt;br&gt;                sameRatioSize = size&lt;span style=&quot;color:#cc7832;&quot;&gt;;&lt;br&gt;&lt;/span&gt;&lt;span style=&quot;color:#cc7832;&quot;&gt;            &lt;/span&gt;}&lt;br&gt;            &lt;span style=&quot;color:#cc7832;&quot;&gt;if &lt;/span&gt;(&lt;span style=&quot;color:#9876aa;&quot;&gt;mDefaultCaptureSize&lt;/span&gt;.getWidth() == size.getWidth() &amp;amp;&amp;amp; &lt;span style=&quot;color:#9876aa;&quot;&gt;mDefaultCaptureSize&lt;/span&gt;.getHeight() == size.getHeight()) {&lt;br&gt;                supportDefaultSize = &lt;span style=&quot;color:#cc7832;&quot;&gt;true;&lt;br&gt;&lt;/span&gt;&lt;span style=&quot;color:#cc7832;&quot;&gt;                break;&lt;br&gt;&lt;/span&gt;&lt;span style=&quot;color:#cc7832;&quot;&gt;            &lt;/span&gt;}&lt;br&gt;        }&lt;br&gt;        &lt;span style=&quot;color:#cc7832;&quot;&gt;if &lt;/span&gt;(supportDefaultSize) {&lt;br&gt;            &lt;span style=&quot;color:#9876aa;&quot;&gt;mPictureSize &lt;/span&gt;= &lt;span style=&quot;color:#9876aa;&quot;&gt;mDefaultCaptureSize&lt;/span&gt;&lt;span style=&quot;color:#cc7832;&quot;&gt;;&lt;br&gt;&lt;/span&gt;&lt;span style=&quot;color:#cc7832;&quot;&gt;        &lt;/span&gt;} &lt;span style=&quot;color:#cc7832;&quot;&gt;else if &lt;/span&gt;(sameRatioSize != &lt;span style=&quot;color:#cc7832;&quot;&gt;null&lt;/span&gt;) {&lt;br&gt;            &lt;span style=&quot;color:#9876aa;&quot;&gt;mPictureSize &lt;/span&gt;= sameRatioSize&lt;span style=&quot;color:#cc7832;&quot;&gt;;&lt;br&gt;&lt;/span&gt;&lt;span style=&quot;color:#cc7832;&quot;&gt;        &lt;/span&gt;}&lt;br&gt;        Log.&lt;span style=&quot;font-style:italic;&quot;&gt;e&lt;/span&gt;(&lt;span style=&quot;color:#9876aa;font-style:italic;&quot;&gt;TAG&lt;/span&gt;&lt;span style=&quot;color:#cc7832;&quot;&gt;, &lt;/span&gt;&lt;span style=&quot;color:#6a8759;&quot;&gt;&quot;mPictureSize: &quot; &lt;/span&gt;+ &lt;span style=&quot;color:#9876aa;&quot;&gt;mPictureSize&lt;/span&gt;)&lt;span style=&quot;color:#cc7832;&quot;&gt;;&lt;br&gt;&lt;/span&gt;&lt;span style=&quot;color:#cc7832;&quot;&gt;    &lt;/span&gt;}&lt;br&gt;    &lt;span style=&quot;color:#9876aa;&quot;&gt;mSensorOrientation &lt;/span&gt;= cameraCharacteristics.get(CameraCharacteristics.&lt;span style=&quot;color:#9876aa;font-style:italic;&quot;&gt;SENSOR_ORIENTATION&lt;/span&gt;)&lt;span style=&quot;color:#cc7832;&quot;&gt;;&lt;br&gt;&lt;/span&gt;&lt;span style=&quot;color:#cc7832;&quot;&gt;    &lt;/span&gt;Log.&lt;span style=&quot;font-style:italic;&quot;&gt;d&lt;/span&gt;(&lt;span style=&quot;color:#9876aa;font-style:italic;&quot;&gt;TAG&lt;/span&gt;&lt;span style=&quot;color:#cc7832;&quot;&gt;, &lt;/span&gt;&lt;span style=&quot;color:#6a8759;&quot;&gt;&quot;initCamera2Wrapper() called mSensorOrientation = &quot; &lt;/span&gt;+ &lt;span style=&quot;color:#9876aa;&quot;&gt;mSensorOrientation&lt;/span&gt;)&lt;span style=&quot;color:#cc7832;&quot;&gt;;&lt;br&gt;&lt;/span&gt;}&lt;/pre&gt;" id="cEB_1FA1UiQfRC9kqUsY-2">
          <mxCell style="text;whiteSpace=wrap;html=1;" vertex="1" parent="1">
            <mxGeometry x="360" y="190" width="560" height="1020" as="geometry" />
          </mxCell>
        </UserObject>
        <mxCell id="cEB_1FA1UiQfRC9kqUsY-3" value="&lt;pre style=&quot;background-color:#2b2b2b;color:#a9b7c6;font-family:&#39;JetBrains Mono&#39;,monospace;font-size:9.8pt;&quot;&gt;&lt;span style=&quot;color:#cc7832;&quot;&gt;private void &lt;/span&gt;&lt;span style=&quot;color:#ffc66d;&quot;&gt;initCamera2Wrapper&lt;/span&gt;() {&lt;br&gt;    &lt;span style=&quot;color:#9876aa;&quot;&gt;mCameraManager &lt;/span&gt;= (CameraManager) &lt;span style=&quot;color:#9876aa;&quot;&gt;mContext&lt;/span&gt;.getSystemService(Context.&lt;span style=&quot;color:#9876aa;font-style:italic;&quot;&gt;CAMERA_SERVICE&lt;/span&gt;)&lt;span style=&quot;color:#cc7832;&quot;&gt;;&lt;br&gt;&lt;/span&gt;&lt;span style=&quot;color:#cc7832;&quot;&gt;    try &lt;/span&gt;{&lt;br&gt;        &lt;span style=&quot;color:#9876aa;&quot;&gt;mSupportCameraIds &lt;/span&gt;= &lt;span style=&quot;color:#9876aa;&quot;&gt;mCameraManager&lt;/span&gt;.getCameraIdList()&lt;span style=&quot;color:#cc7832;&quot;&gt;;&lt;br&gt;&lt;/span&gt;&lt;span style=&quot;color:#cc7832;&quot;&gt;        if &lt;/span&gt;(checkCameraIdSupport(String.&lt;span style=&quot;font-style:italic;&quot;&gt;valueOf&lt;/span&gt;(&lt;span style=&quot;color:#9876aa;font-style:italic;&quot;&gt;DEFAULT_CAMERA_ID&lt;/span&gt;))) {&lt;br&gt;        } &lt;span style=&quot;color:#cc7832;&quot;&gt;else &lt;/span&gt;{&lt;br&gt;            &lt;span style=&quot;color:#cc7832;&quot;&gt;throw new &lt;/span&gt;AndroidRuntimeException(&lt;span style=&quot;color:#6a8759;&quot;&gt;&quot;Don&#39;t support the camera id: &quot; &lt;/span&gt;+ &lt;span style=&quot;color:#9876aa;font-style:italic;&quot;&gt;DEFAULT_CAMERA_ID&lt;/span&gt;)&lt;span style=&quot;color:#cc7832;&quot;&gt;;&lt;br&gt;&lt;/span&gt;&lt;span style=&quot;color:#cc7832;&quot;&gt;        &lt;/span&gt;}&lt;br&gt;        &lt;span style=&quot;color:#9876aa;&quot;&gt;mCameraId &lt;/span&gt;= String.&lt;span style=&quot;font-style:italic;&quot;&gt;valueOf&lt;/span&gt;(&lt;span style=&quot;color:#9876aa;font-style:italic;&quot;&gt;DEFAULT_CAMERA_ID&lt;/span&gt;)&lt;span style=&quot;color:#cc7832;&quot;&gt;;&lt;br&gt;&lt;/span&gt;&lt;span style=&quot;color:#cc7832;&quot;&gt;        &lt;/span&gt;getCameraInfo(&lt;span style=&quot;color:#9876aa;&quot;&gt;mCameraId&lt;/span&gt;)&lt;span style=&quot;color:#cc7832;&quot;&gt;;&lt;br&gt;&lt;/span&gt;&lt;span style=&quot;color:#cc7832;&quot;&gt;    &lt;/span&gt;} &lt;span style=&quot;color:#cc7832;&quot;&gt;catch &lt;/span&gt;(CameraAccessException e) {&lt;br&gt;        e.printStackTrace()&lt;span style=&quot;color:#cc7832;&quot;&gt;;&lt;br&gt;&lt;/span&gt;&lt;span style=&quot;color:#cc7832;&quot;&gt;    &lt;/span&gt;}&lt;br&gt;}&lt;/pre&gt;" style="text;whiteSpace=wrap;html=1;" vertex="1" parent="1">
          <mxGeometry x="-557" y="200" width="560" height="270" as="geometry" />
        </mxCell>
        <mxCell id="cEB_1FA1UiQfRC9kqUsY-5" value="&lt;pre style=&quot;background-color:#2b2b2b;color:#a9b7c6;font-family:&#39;JetBrains Mono&#39;,monospace;font-size:9.8pt;&quot;&gt;&lt;span style=&quot;color:#cc7832;&quot;&gt;private &lt;/span&gt;Context &lt;span style=&quot;color:#9876aa;&quot;&gt;mContext&lt;/span&gt;&lt;span style=&quot;color:#cc7832;&quot;&gt;;&lt;br&gt;&lt;/span&gt;&lt;span style=&quot;color:#cc7832;&quot;&gt;private &lt;/span&gt;CameraManager &lt;span style=&quot;color:#9876aa;&quot;&gt;mCameraManager&lt;/span&gt;&lt;span style=&quot;color:#cc7832;&quot;&gt;;&lt;br&gt;&lt;/span&gt;&lt;span style=&quot;color:#cc7832;&quot;&gt;private &lt;/span&gt;String[] &lt;span style=&quot;color:#9876aa;&quot;&gt;mSupportCameraIds&lt;/span&gt;&lt;span style=&quot;color:#cc7832;&quot;&gt;;&lt;br&gt;&lt;/span&gt;&lt;span style=&quot;color:#cc7832;&quot;&gt;private &lt;/span&gt;String &lt;span style=&quot;color:#9876aa;&quot;&gt;mCameraId&lt;/span&gt;&lt;span style=&quot;color:#cc7832;&quot;&gt;;&lt;br&gt;&lt;/span&gt;&lt;span style=&quot;color:#cc7832;&quot;&gt;&lt;br&gt;&lt;/span&gt;&lt;span style=&quot;color:#cc7832;&quot;&gt;private &lt;/span&gt;List&amp;lt;Size&amp;gt; &lt;span style=&quot;color:#9876aa;&quot;&gt;mSupportPreviewSize&lt;/span&gt;&lt;span style=&quot;color:#cc7832;&quot;&gt;, &lt;/span&gt;&lt;span style=&quot;color:#9876aa;&quot;&gt;mSupportPictureSize&lt;/span&gt;&lt;span style=&quot;color:#cc7832;&quot;&gt;;&lt;br&gt;&lt;/span&gt;&lt;span style=&quot;color:#cc7832;&quot;&gt;private &lt;/span&gt;Size &lt;span style=&quot;color:#9876aa;&quot;&gt;mPreviewSize&lt;/span&gt;&lt;span style=&quot;color:#cc7832;&quot;&gt;, &lt;/span&gt;&lt;span style=&quot;color:#9876aa;&quot;&gt;mPictureSize&lt;/span&gt;&lt;span style=&quot;color:#cc7832;&quot;&gt;;&lt;br&gt;&lt;/span&gt;&lt;span style=&quot;color:#cc7832;&quot;&gt;&lt;br&gt;&lt;/span&gt;&lt;span style=&quot;color:#cc7832;&quot;&gt;private &lt;/span&gt;Size &lt;span style=&quot;color:#9876aa;&quot;&gt;mDefaultPreviewSize &lt;/span&gt;= &lt;span style=&quot;color:#cc7832;&quot;&gt;new &lt;/span&gt;Size(&lt;span style=&quot;color:#6897bb;&quot;&gt;1280&lt;/span&gt;&lt;span style=&quot;color:#cc7832;&quot;&gt;, &lt;/span&gt;&lt;span style=&quot;color:#6897bb;&quot;&gt;720&lt;/span&gt;)&lt;span style=&quot;color:#cc7832;&quot;&gt;;&lt;br&gt;&lt;/span&gt;&lt;span style=&quot;color:#cc7832;&quot;&gt;private &lt;/span&gt;Size &lt;span style=&quot;color:#9876aa;&quot;&gt;mDefaultCaptureSize &lt;/span&gt;= &lt;span style=&quot;color:#cc7832;&quot;&gt;new &lt;/span&gt;Size(&lt;span style=&quot;color:#6897bb;&quot;&gt;1280&lt;/span&gt;&lt;span style=&quot;color:#cc7832;&quot;&gt;, &lt;/span&gt;&lt;span style=&quot;color:#6897bb;&quot;&gt;720&lt;/span&gt;)&lt;span style=&quot;color:#cc7832;&quot;&gt;;&lt;br&gt;&lt;/span&gt;&lt;span style=&quot;color:#cc7832;&quot;&gt;private &lt;/span&gt;Integer &lt;span style=&quot;color:#9876aa;&quot;&gt;mSensorOrientation&lt;/span&gt;&lt;span style=&quot;color:#cc7832;&quot;&gt;;&lt;/span&gt;&lt;/pre&gt;" style="text;whiteSpace=wrap;html=1;" vertex="1" parent="1">
          <mxGeometry x="-537" y="-20" width="450" height="220" as="geometry" />
        </mxCell>
        <mxCell id="cEB_1FA1UiQfRC9kqUsY-6" value="" style="shape=flexArrow;endArrow=classic;html=1;rounded=0;fillColor=#E5CCFF;" edge="1" parent="1">
          <mxGeometry width="50" height="50" relative="1" as="geometry">
            <mxPoint x="-17" y="360" as="sourcePoint" />
            <mxPoint x="403" y="380" as="targetPoint" />
          </mxGeometry>
        </mxCell>
        <mxCell id="cEB_1FA1UiQfRC9kqUsY-7" value="" style="shape=flexArrow;endArrow=classic;html=1;rounded=0;entryX=-0.004;entryY=0.467;entryDx=0;entryDy=0;entryPerimeter=0;" edge="1" parent="1">
          <mxGeometry width="50" height="50" relative="1" as="geometry">
            <mxPoint x="-644.76" y="223.91" as="sourcePoint" />
            <mxPoint x="-559.5" y="250.00000000000014" as="targetPoint" />
          </mxGeometry>
        </mxCell>
        <mxCell id="cEB_1FA1UiQfRC9kqUsY-8" value="" style="shape=flexArrow;endArrow=classic;html=1;rounded=0;fillColor=#CCFFFF;" edge="1" parent="1">
          <mxGeometry width="50" height="50" relative="1" as="geometry">
            <mxPoint x="70" y="290" as="sourcePoint" />
            <mxPoint x="380.68" y="120" as="targetPoint" />
          </mxGeometry>
        </mxCell>
        <mxCell id="cEB_1FA1UiQfRC9kqUsY-9" value="&lt;pre style=&quot;background-color:#2b2b2b;color:#a9b7c6;font-family:&#39;JetBrains Mono&#39;,monospace;font-size:9.8pt;&quot;&gt;&lt;span style=&quot;color:#ffc66d;&quot;&gt;startCamera&lt;/span&gt;()&lt;/pre&gt;" style="text;whiteSpace=wrap;html=1;" vertex="1" parent="1">
          <mxGeometry x="-840" y="1620" width="120" height="70" as="geometry" />
        </mxCell>
        <mxCell id="cEB_1FA1UiQfRC9kqUsY-12" value="&lt;pre style=&quot;background-color:#2b2b2b;color:#a9b7c6;font-family:&#39;JetBrains Mono&#39;,monospace;font-size:9.8pt;&quot;&gt;&lt;span style=&quot;color:#cc7832;&quot;&gt;public void &lt;/span&gt;&lt;span style=&quot;color:#ffc66d;&quot;&gt;startCamera&lt;/span&gt;() {&lt;br&gt;    startBackgroundThread()&lt;span style=&quot;color:#cc7832;&quot;&gt;;&lt;br&gt;&lt;/span&gt;&lt;span style=&quot;color:#cc7832;&quot;&gt;    if &lt;/span&gt;(&lt;span style=&quot;color:#9876aa;&quot;&gt;mPreviewImageReader &lt;/span&gt;== &lt;span style=&quot;color:#cc7832;&quot;&gt;null &lt;/span&gt;&amp;amp;&amp;amp; &lt;span style=&quot;color:#9876aa;&quot;&gt;mPreviewSize &lt;/span&gt;!= &lt;span style=&quot;color:#cc7832;&quot;&gt;null&lt;/span&gt;) {&lt;br&gt;        &lt;span style=&quot;color:#9876aa;&quot;&gt;mPreviewImageReader &lt;/span&gt;= ImageReader.&lt;span style=&quot;font-style:italic;&quot;&gt;newInstance&lt;/span&gt;(&lt;span style=&quot;color:#9876aa;&quot;&gt;mPreviewSize&lt;/span&gt;.getWidth()&lt;span style=&quot;color:#cc7832;&quot;&gt;, &lt;/span&gt;&lt;span style=&quot;color:#9876aa;&quot;&gt;mPreviewSize&lt;/span&gt;.getHeight()&lt;span style=&quot;color:#cc7832;&quot;&gt;, &lt;/span&gt;ImageFormat.&lt;span style=&quot;color:#9876aa;font-style:italic;&quot;&gt;YUV_420_888&lt;/span&gt;&lt;span style=&quot;color:#cc7832;&quot;&gt;, &lt;/span&gt;&lt;span style=&quot;color:#6897bb;&quot;&gt;2&lt;/span&gt;)&lt;span style=&quot;color:#cc7832;&quot;&gt;;&lt;br&gt;&lt;/span&gt;&lt;span style=&quot;color:#cc7832;&quot;&gt;        &lt;/span&gt;&lt;span style=&quot;color:#9876aa;&quot;&gt;mPreviewImageReader&lt;/span&gt;.setOnImageAvailableListener(&lt;span style=&quot;color:#9876aa;&quot;&gt;mOnPreviewImageAvailableListener&lt;/span&gt;&lt;span style=&quot;color:#cc7832;&quot;&gt;, &lt;/span&gt;&lt;span style=&quot;color:#9876aa;&quot;&gt;mBackgroundHandler&lt;/span&gt;)&lt;span style=&quot;color:#cc7832;&quot;&gt;;&lt;br&gt;&lt;/span&gt;&lt;span style=&quot;color:#cc7832;&quot;&gt;        &lt;/span&gt;&lt;span style=&quot;color:#9876aa;&quot;&gt;mPreviewSurface &lt;/span&gt;= &lt;span style=&quot;color:#9876aa;&quot;&gt;mPreviewImageReader&lt;/span&gt;.getSurface()&lt;span style=&quot;color:#cc7832;&quot;&gt;;&lt;br&gt;&lt;/span&gt;&lt;span style=&quot;color:#cc7832;&quot;&gt;    &lt;/span&gt;}&lt;br&gt;&lt;br&gt;    &lt;span style=&quot;color:#cc7832;&quot;&gt;if &lt;/span&gt;(&lt;span style=&quot;color:#9876aa;&quot;&gt;mCaptureImageReader &lt;/span&gt;== &lt;span style=&quot;color:#cc7832;&quot;&gt;null &lt;/span&gt;&amp;amp;&amp;amp; &lt;span style=&quot;color:#9876aa;&quot;&gt;mPictureSize &lt;/span&gt;!= &lt;span style=&quot;color:#cc7832;&quot;&gt;null&lt;/span&gt;) {&lt;br&gt;        &lt;span style=&quot;color:#9876aa;&quot;&gt;mCaptureImageReader &lt;/span&gt;= ImageReader.&lt;span style=&quot;font-style:italic;&quot;&gt;newInstance&lt;/span&gt;(&lt;span style=&quot;color:#9876aa;&quot;&gt;mPictureSize&lt;/span&gt;.getWidth()&lt;span style=&quot;color:#cc7832;&quot;&gt;, &lt;/span&gt;&lt;span style=&quot;color:#9876aa;&quot;&gt;mPictureSize&lt;/span&gt;.getHeight()&lt;span style=&quot;color:#cc7832;&quot;&gt;, &lt;/span&gt;ImageFormat.&lt;span style=&quot;color:#9876aa;font-style:italic;&quot;&gt;YUV_420_888&lt;/span&gt;&lt;span style=&quot;color:#cc7832;&quot;&gt;, &lt;/span&gt;&lt;span style=&quot;color:#6897bb;&quot;&gt;2&lt;/span&gt;)&lt;span style=&quot;color:#cc7832;&quot;&gt;;&lt;br&gt;&lt;/span&gt;&lt;span style=&quot;color:#cc7832;&quot;&gt;        &lt;/span&gt;&lt;span style=&quot;color:#9876aa;&quot;&gt;mCaptureImageReader&lt;/span&gt;.setOnImageAvailableListener(&lt;span style=&quot;color:#9876aa;&quot;&gt;mOnCaptureImageAvailableListener&lt;/span&gt;&lt;span style=&quot;color:#cc7832;&quot;&gt;, &lt;/span&gt;&lt;span style=&quot;color:#9876aa;&quot;&gt;mBackgroundHandler&lt;/span&gt;)&lt;span style=&quot;color:#cc7832;&quot;&gt;;&lt;br&gt;&lt;/span&gt;&lt;span style=&quot;color:#cc7832;&quot;&gt;    &lt;/span&gt;}&lt;br&gt;    openCamera()&lt;span style=&quot;color:#cc7832;&quot;&gt;;&lt;br&gt;&lt;/span&gt;}&lt;/pre&gt;" style="text;whiteSpace=wrap;html=1;" vertex="1" parent="1">
          <mxGeometry x="-680" y="1720" width="170" height="270" as="geometry" />
        </mxCell>
        <mxCell id="cEB_1FA1UiQfRC9kqUsY-13" value="&lt;pre style=&quot;background-color:#2b2b2b;color:#a9b7c6;font-family:&#39;JetBrains Mono&#39;,monospace;font-size:9.8pt;&quot;&gt;&lt;span style=&quot;color:#cc7832;&quot;&gt;private void &lt;/span&gt;&lt;span style=&quot;color:#ffc66d;&quot;&gt;startBackgroundThread&lt;/span&gt;() {&lt;br&gt;    &lt;span style=&quot;color:#9876aa;&quot;&gt;mBackgroundThread &lt;/span&gt;= &lt;span style=&quot;color:#cc7832;&quot;&gt;new &lt;/span&gt;HandlerThread(&lt;span style=&quot;color:#6a8759;&quot;&gt;&quot;Camera2Background&quot;&lt;/span&gt;)&lt;span style=&quot;color:#cc7832;&quot;&gt;;&lt;br&gt;&lt;/span&gt;&lt;span style=&quot;color:#cc7832;&quot;&gt;    &lt;/span&gt;&lt;span style=&quot;color:#9876aa;&quot;&gt;mBackgroundThread&lt;/span&gt;.start()&lt;span style=&quot;color:#cc7832;&quot;&gt;;&lt;br&gt;&lt;/span&gt;&lt;span style=&quot;color:#cc7832;&quot;&gt;    &lt;/span&gt;&lt;span style=&quot;color:#9876aa;&quot;&gt;mBackgroundHandler &lt;/span&gt;= &lt;span style=&quot;color:#cc7832;&quot;&gt;new &lt;/span&gt;Handler(&lt;span style=&quot;color:#9876aa;&quot;&gt;mBackgroundThread&lt;/span&gt;.getLooper())&lt;span style=&quot;color:#cc7832;&quot;&gt;;&lt;br&gt;&lt;/span&gt;}&lt;/pre&gt;" style="text;whiteSpace=wrap;html=1;" vertex="1" parent="1">
          <mxGeometry x="380" y="1590" width="510" height="130" as="geometry" />
        </mxCell>
        <mxCell id="cEB_1FA1UiQfRC9kqUsY-16" value="&lt;pre style=&quot;background-color:#2b2b2b;color:#a9b7c6;font-family:&#39;JetBrains Mono&#39;,monospace;font-size:9.8pt;&quot;&gt;&lt;pre style=&quot;font-family: &amp;quot;JetBrains Mono&amp;quot;, monospace; font-size: 9.8pt;&quot;&gt;&lt;span style=&quot;color:#808080;&quot;&gt;//startCamera&lt;br&gt;&lt;/span&gt;&lt;span style=&quot;color:#cc7832;&quot;&gt;private &lt;/span&gt;Semaphore &lt;span style=&quot;color:#9876aa;&quot;&gt;mCameraLock &lt;/span&gt;= &lt;span style=&quot;color:#cc7832;&quot;&gt;new &lt;/span&gt;Semaphore(&lt;span style=&quot;color:#6897bb;&quot;&gt;1&lt;/span&gt;)&lt;span style=&quot;color:#cc7832;&quot;&gt;;&lt;br&gt;&lt;/span&gt;&lt;span style=&quot;color:#cc7832;&quot;&gt;&lt;br&gt;&lt;/span&gt;&lt;span style=&quot;color:#cc7832;&quot;&gt;private &lt;/span&gt;Handler &lt;span style=&quot;color:#9876aa;&quot;&gt;mBackgroundHandler&lt;/span&gt;&lt;span style=&quot;color:#cc7832;&quot;&gt;;&lt;br&gt;&lt;/span&gt;&lt;span style=&quot;color:#cc7832;&quot;&gt;private &lt;/span&gt;HandlerThread &lt;span style=&quot;color:#9876aa;&quot;&gt;mBackgroundThread&lt;/span&gt;&lt;span style=&quot;color:#cc7832;&quot;&gt;;&lt;br&gt;&lt;/span&gt;&lt;span style=&quot;color:#cc7832;&quot;&gt;&lt;br&gt;&lt;/span&gt;&lt;span style=&quot;color:#cc7832;&quot;&gt;private &lt;/span&gt;ImageReader &lt;span style=&quot;color:#9876aa;&quot;&gt;mPreviewImageReader&lt;/span&gt;&lt;span style=&quot;color:#cc7832;&quot;&gt;, &lt;/span&gt;&lt;span style=&quot;color:#9876aa;&quot;&gt;mCaptureImageReader&lt;/span&gt;&lt;span style=&quot;color:#cc7832;&quot;&gt;;&lt;br&gt;&lt;/span&gt;&lt;span style=&quot;color:#cc7832;&quot;&gt;private &lt;/span&gt;Surface &lt;span style=&quot;color:#9876aa;&quot;&gt;mPreviewSurface&lt;/span&gt;&lt;span style=&quot;color:#cc7832;&quot;&gt;;&lt;br&gt;&lt;/span&gt;&lt;span style=&quot;color:#cc7832;&quot;&gt;&lt;br&gt;&lt;/span&gt;&lt;span style=&quot;color:#cc7832;&quot;&gt;private &lt;/span&gt;CameraDevice &lt;span style=&quot;color:#9876aa;&quot;&gt;mCameraDevice&lt;/span&gt;&lt;span style=&quot;color:#cc7832;&quot;&gt;;&lt;br&gt;&lt;/span&gt;&lt;span style=&quot;color:#cc7832;&quot;&gt;&lt;br&gt;&lt;/span&gt;&lt;span style=&quot;color:#cc7832;&quot;&gt;private &lt;/span&gt;CameraCaptureSession &lt;span style=&quot;color:#9876aa;&quot;&gt;mCameraCaptureSession&lt;/span&gt;&lt;span style=&quot;color:#cc7832;&quot;&gt;;&lt;br&gt;&lt;/span&gt;&lt;span style=&quot;color:#cc7832;&quot;&gt;&lt;br&gt;&lt;/span&gt;&lt;span style=&quot;color:#cc7832;&quot;&gt;private &lt;/span&gt;CaptureRequest &lt;span style=&quot;color:#9876aa;&quot;&gt;mPreviewRequest&lt;/span&gt;&lt;span style=&quot;color:#cc7832;&quot;&gt;;&lt;/span&gt;&lt;/pre&gt;&lt;/pre&gt;" style="text;whiteSpace=wrap;html=1;" vertex="1" parent="1">
          <mxGeometry x="-680" y="1450" width="460" height="260" as="geometry" />
        </mxCell>
        <UserObject label="&lt;pre style=&quot;background-color:#2b2b2b;color:#a9b7c6;font-family:&#39;JetBrains Mono&#39;,monospace;font-size:9.8pt;&quot;&gt;&lt;span style=&quot;color:#cc7832;&quot;&gt;private &lt;/span&gt;ImageReader.OnImageAvailableListener &lt;span style=&quot;color:#9876aa;&quot;&gt;mOnPreviewImageAvailableListener &lt;/span&gt;= &lt;span style=&quot;color:#cc7832;&quot;&gt;new &lt;/span&gt;ImageReader.OnImageAvailableListener() {&lt;br&gt;    &lt;span style=&quot;color:#bbb529;&quot;&gt;@Override&lt;br&gt;&lt;/span&gt;&lt;span style=&quot;color:#bbb529;&quot;&gt;    &lt;/span&gt;&lt;span style=&quot;color:#cc7832;&quot;&gt;public void &lt;/span&gt;&lt;span style=&quot;color:#ffc66d;&quot;&gt;onImageAvailable&lt;/span&gt;(ImageReader reader) {&lt;br&gt;        Image image = reader.acquireNextImage()&lt;span style=&quot;color:#cc7832;&quot;&gt;;&lt;br&gt;&lt;/span&gt;&lt;span style=&quot;color:#cc7832;&quot;&gt;        if &lt;/span&gt;(image != &lt;span style=&quot;color:#cc7832;&quot;&gt;null&lt;/span&gt;) {&lt;br&gt;            Log.&lt;span style=&quot;font-style:italic;&quot;&gt;d&lt;/span&gt;(&lt;span style=&quot;color:#9876aa;font-style:italic;&quot;&gt;TAG&lt;/span&gt;&lt;span style=&quot;color:#cc7832;&quot;&gt;, &lt;/span&gt;&lt;span style=&quot;color:#6a8759;&quot;&gt;&quot;onImageAvailable: image &quot;&lt;/span&gt;)&lt;span style=&quot;color:#cc7832;&quot;&gt;;&lt;br&gt;&lt;/span&gt;&lt;span style=&quot;color:#cc7832;&quot;&gt;            if &lt;/span&gt;(&lt;span style=&quot;color:#9876aa;&quot;&gt;mCamera2FrameCallback &lt;/span&gt;!= &lt;span style=&quot;color:#cc7832;&quot;&gt;null&lt;/span&gt;) {&lt;br&gt;                &lt;span style=&quot;color:#9876aa;&quot;&gt;mCamera2FrameCallback&lt;/span&gt;.onPreviewFrame(CameraUtil.&lt;span style=&quot;font-style:italic;&quot;&gt;YUV_420_888_data&lt;/span&gt;(image)&lt;span style=&quot;color:#cc7832;&quot;&gt;, &lt;/span&gt;image.getWidth()&lt;span style=&quot;color:#cc7832;&quot;&gt;, &lt;/span&gt;image.getHeight())&lt;span style=&quot;color:#cc7832;&quot;&gt;;&lt;br&gt;&lt;/span&gt;&lt;span style=&quot;color:#cc7832;&quot;&gt;            &lt;/span&gt;}&lt;br&gt;            image.close()&lt;span style=&quot;color:#cc7832;&quot;&gt;;&lt;br&gt;&lt;/span&gt;&lt;span style=&quot;color:#cc7832;&quot;&gt;        &lt;/span&gt;}&lt;br&gt;    }&lt;br&gt;}&lt;span style=&quot;color:#cc7832;&quot;&gt;;&lt;br&gt;&lt;/span&gt;&lt;span style=&quot;color:#cc7832;&quot;&gt;&lt;br&gt;&lt;/span&gt;&lt;span style=&quot;color:#cc7832;&quot;&gt;private &lt;/span&gt;ImageReader.OnImageAvailableListener &lt;span style=&quot;color:#9876aa;&quot;&gt;mOnCaptureImageAvailableListener &lt;/span&gt;= &lt;span style=&quot;color:#cc7832;&quot;&gt;new &lt;/span&gt;ImageReader.OnImageAvailableListener() {&lt;br&gt;    &lt;span style=&quot;color:#bbb529;&quot;&gt;@Override&lt;br&gt;&lt;/span&gt;&lt;span style=&quot;color:#bbb529;&quot;&gt;    &lt;/span&gt;&lt;span style=&quot;color:#cc7832;&quot;&gt;public void &lt;/span&gt;&lt;span style=&quot;color:#ffc66d;&quot;&gt;onImageAvailable&lt;/span&gt;(ImageReader reader) {&lt;br&gt;        Image image = reader.acquireLatestImage()&lt;span style=&quot;color:#cc7832;&quot;&gt;;&lt;br&gt;&lt;/span&gt;&lt;span style=&quot;color:#cc7832;&quot;&gt;        if &lt;/span&gt;(image != &lt;span style=&quot;color:#cc7832;&quot;&gt;null&lt;/span&gt;) {&lt;br&gt;            &lt;span style=&quot;color:#cc7832;&quot;&gt;if &lt;/span&gt;(&lt;span style=&quot;color:#9876aa;&quot;&gt;mCamera2FrameCallback &lt;/span&gt;!= &lt;span style=&quot;color:#cc7832;&quot;&gt;null&lt;/span&gt;) {&lt;br&gt;                &lt;span style=&quot;color:#9876aa;&quot;&gt;mCamera2FrameCallback&lt;/span&gt;.onCaptureFrame(CameraUtil.&lt;span style=&quot;font-style:italic;&quot;&gt;YUV_420_888_data&lt;/span&gt;(image)&lt;span style=&quot;color:#cc7832;&quot;&gt;, &lt;/span&gt;image.getWidth()&lt;span style=&quot;color:#cc7832;&quot;&gt;, &lt;/span&gt;image.getHeight())&lt;span style=&quot;color:#cc7832;&quot;&gt;;&lt;br&gt;&lt;/span&gt;&lt;span style=&quot;color:#cc7832;&quot;&gt;            &lt;/span&gt;}&lt;br&gt;            image.close()&lt;span style=&quot;color:#cc7832;&quot;&gt;;&lt;br&gt;&lt;/span&gt;&lt;span style=&quot;color:#cc7832;&quot;&gt;        &lt;/span&gt;}&lt;br&gt;    }&lt;br&gt;}&lt;span style=&quot;color:#cc7832;&quot;&gt;;&lt;/span&gt;&lt;/pre&gt;" link="&lt;pre style=&quot;background-color:#2b2b2b;color:#a9b7c6;font-family:&#39;JetBrains Mono&#39;,monospace;font-size:9.8pt;&quot;&gt;&lt;span style=&quot;color:#cc7832;&quot;&gt;private &lt;/span&gt;ImageReader.OnImageAvailableListener &lt;span style=&quot;color:#9876aa;&quot;&gt;mOnPreviewImageAvailableListener &lt;/span&gt;= &lt;span style=&quot;color:#cc7832;&quot;&gt;new &lt;/span&gt;ImageReader.OnImageAvailableListener() {&lt;br&gt;    &lt;span style=&quot;color:#bbb529;&quot;&gt;@Override&lt;br&gt;&lt;/span&gt;&lt;span style=&quot;color:#bbb529;&quot;&gt;    &lt;/span&gt;&lt;span style=&quot;color:#cc7832;&quot;&gt;public void &lt;/span&gt;&lt;span style=&quot;color:#ffc66d;&quot;&gt;onImageAvailable&lt;/span&gt;(ImageReader reader) {&lt;br&gt;        Image image = reader.acquireNextImage()&lt;span style=&quot;color:#cc7832;&quot;&gt;;&lt;br&gt;&lt;/span&gt;&lt;span style=&quot;color:#cc7832;&quot;&gt;        if &lt;/span&gt;(image != &lt;span style=&quot;color:#cc7832;&quot;&gt;null&lt;/span&gt;) {&lt;br&gt;            Log.&lt;span style=&quot;font-style:italic;&quot;&gt;d&lt;/span&gt;(&lt;span style=&quot;color:#9876aa;font-style:italic;&quot;&gt;TAG&lt;/span&gt;&lt;span style=&quot;color:#cc7832;&quot;&gt;, &lt;/span&gt;&lt;span style=&quot;color:#6a8759;&quot;&gt;&quot;onImageAvailable: image &quot;&lt;/span&gt;)&lt;span style=&quot;color:#cc7832;&quot;&gt;;&lt;br&gt;&lt;/span&gt;&lt;span style=&quot;color:#cc7832;&quot;&gt;            if &lt;/span&gt;(&lt;span style=&quot;color:#9876aa;&quot;&gt;mCamera2FrameCallback &lt;/span&gt;!= &lt;span style=&quot;color:#cc7832;&quot;&gt;null&lt;/span&gt;) {&lt;br&gt;                &lt;span style=&quot;color:#9876aa;&quot;&gt;mCamera2FrameCallback&lt;/span&gt;.onPreviewFrame(CameraUtil.&lt;span style=&quot;font-style:italic;&quot;&gt;YUV_420_888_data&lt;/span&gt;(image)&lt;span style=&quot;color:#cc7832;&quot;&gt;, &lt;/span&gt;image.getWidth()&lt;span style=&quot;color:#cc7832;&quot;&gt;, &lt;/span&gt;image.getHeight())&lt;span style=&quot;color:#cc7832;&quot;&gt;;&lt;br&gt;&lt;/span&gt;&lt;span style=&quot;color:#cc7832;&quot;&gt;            &lt;/span&gt;}&lt;br&gt;            image.close()&lt;span style=&quot;color:#cc7832;&quot;&gt;;&lt;br&gt;&lt;/span&gt;&lt;span style=&quot;color:#cc7832;&quot;&gt;        &lt;/span&gt;}&lt;br&gt;    }&lt;br&gt;}&lt;span style=&quot;color:#cc7832;&quot;&gt;;&lt;br&gt;&lt;/span&gt;&lt;span style=&quot;color:#cc7832;&quot;&gt;&lt;br&gt;&lt;/span&gt;&lt;span style=&quot;color:#cc7832;&quot;&gt;private &lt;/span&gt;ImageReader.OnImageAvailableListener &lt;span style=&quot;color:#9876aa;&quot;&gt;mOnCaptureImageAvailableListener &lt;/span&gt;= &lt;span style=&quot;color:#cc7832;&quot;&gt;new &lt;/span&gt;ImageReader.OnImageAvailableListener() {&lt;br&gt;    &lt;span style=&quot;color:#bbb529;&quot;&gt;@Override&lt;br&gt;&lt;/span&gt;&lt;span style=&quot;color:#bbb529;&quot;&gt;    &lt;/span&gt;&lt;span style=&quot;color:#cc7832;&quot;&gt;public void &lt;/span&gt;&lt;span style=&quot;color:#ffc66d;&quot;&gt;onImageAvailable&lt;/span&gt;(ImageReader reader) {&lt;br&gt;        Image image = reader.acquireLatestImage()&lt;span style=&quot;color:#cc7832;&quot;&gt;;&lt;br&gt;&lt;/span&gt;&lt;span style=&quot;color:#cc7832;&quot;&gt;        if &lt;/span&gt;(image != &lt;span style=&quot;color:#cc7832;&quot;&gt;null&lt;/span&gt;) {&lt;br&gt;            &lt;span style=&quot;color:#cc7832;&quot;&gt;if &lt;/span&gt;(&lt;span style=&quot;color:#9876aa;&quot;&gt;mCamera2FrameCallback &lt;/span&gt;!= &lt;span style=&quot;color:#cc7832;&quot;&gt;null&lt;/span&gt;) {&lt;br&gt;                &lt;span style=&quot;color:#9876aa;&quot;&gt;mCamera2FrameCallback&lt;/span&gt;.onCaptureFrame(CameraUtil.&lt;span style=&quot;font-style:italic;&quot;&gt;YUV_420_888_data&lt;/span&gt;(image)&lt;span style=&quot;color:#cc7832;&quot;&gt;, &lt;/span&gt;image.getWidth()&lt;span style=&quot;color:#cc7832;&quot;&gt;, &lt;/span&gt;image.getHeight())&lt;span style=&quot;color:#cc7832;&quot;&gt;;&lt;br&gt;&lt;/span&gt;&lt;span style=&quot;color:#cc7832;&quot;&gt;            &lt;/span&gt;}&lt;br&gt;            image.close()&lt;span style=&quot;color:#cc7832;&quot;&gt;;&lt;br&gt;&lt;/span&gt;&lt;span style=&quot;color:#cc7832;&quot;&gt;        &lt;/span&gt;}&lt;br&gt;    }&lt;br&gt;}&lt;span style=&quot;color:#cc7832;&quot;&gt;;&lt;/span&gt;&lt;/pre&gt;" id="cEB_1FA1UiQfRC9kqUsY-17">
          <mxCell style="text;whiteSpace=wrap;html=1;" vertex="1" parent="1">
            <mxGeometry x="380" y="1690" width="560" height="460" as="geometry" />
          </mxCell>
        </UserObject>
        <mxCell id="cEB_1FA1UiQfRC9kqUsY-18" value="&lt;pre style=&quot;background-color:#2b2b2b;color:#a9b7c6;font-family:&#39;JetBrains Mono&#39;,monospace;font-size:9.8pt;&quot;&gt;&lt;span style=&quot;color:#cc7832;&quot;&gt;private void &lt;/span&gt;&lt;span style=&quot;color:#ffc66d;&quot;&gt;openCamera&lt;/span&gt;() {&lt;br&gt;    Log.&lt;span style=&quot;font-style:italic;&quot;&gt;d&lt;/span&gt;(&lt;span style=&quot;color:#9876aa;font-style:italic;&quot;&gt;TAG&lt;/span&gt;&lt;span style=&quot;color:#cc7832;&quot;&gt;, &lt;/span&gt;&lt;span style=&quot;color:#6a8759;&quot;&gt;&quot;openCamera() called&quot;&lt;/span&gt;)&lt;span style=&quot;color:#cc7832;&quot;&gt;;&lt;br&gt;&lt;/span&gt;&lt;span style=&quot;color:#cc7832;&quot;&gt;    if &lt;/span&gt;(ContextCompat.&lt;span style=&quot;font-style:italic;&quot;&gt;checkSelfPermission&lt;/span&gt;(&lt;span style=&quot;color:#9876aa;&quot;&gt;mContext&lt;/span&gt;&lt;span style=&quot;color:#cc7832;&quot;&gt;, &lt;/span&gt;Manifest.permission.&lt;span style=&quot;color:#9876aa;font-style:italic;&quot;&gt;CAMERA&lt;/span&gt;) != PackageManager.&lt;span style=&quot;color:#9876aa;font-style:italic;&quot;&gt;PERMISSION_GRANTED&lt;/span&gt;) {&lt;br&gt;        Log.&lt;span style=&quot;font-style:italic;&quot;&gt;d&lt;/span&gt;(&lt;span style=&quot;color:#9876aa;font-style:italic;&quot;&gt;TAG&lt;/span&gt;&lt;span style=&quot;color:#cc7832;&quot;&gt;, &lt;/span&gt;&lt;span style=&quot;color:#6a8759;&quot;&gt;&quot;openCamera: checkSelfPermission return &quot;&lt;/span&gt;)&lt;span style=&quot;color:#cc7832;&quot;&gt;;&lt;br&gt;&lt;/span&gt;&lt;span style=&quot;color:#cc7832;&quot;&gt;        return;&lt;br&gt;&lt;/span&gt;&lt;span style=&quot;color:#cc7832;&quot;&gt;    &lt;/span&gt;}&lt;br&gt;&lt;br&gt;    CameraManager manager = (CameraManager) &lt;span style=&quot;color:#9876aa;&quot;&gt;mContext&lt;/span&gt;.getSystemService(Context.&lt;span style=&quot;color:#9876aa;font-style:italic;&quot;&gt;CAMERA_SERVICE&lt;/span&gt;)&lt;span style=&quot;color:#cc7832;&quot;&gt;;&lt;br&gt;&lt;/span&gt;&lt;span style=&quot;color:#cc7832;&quot;&gt;    try &lt;/span&gt;{&lt;br&gt;        &lt;span style=&quot;color:#cc7832;&quot;&gt;if &lt;/span&gt;(!&lt;span style=&quot;color:#9876aa;&quot;&gt;mCameraLock&lt;/span&gt;.tryAcquire(&lt;span style=&quot;color:#6897bb;&quot;&gt;2500&lt;/span&gt;&lt;span style=&quot;color:#cc7832;&quot;&gt;, &lt;/span&gt;TimeUnit.&lt;span style=&quot;color:#9876aa;font-style:italic;&quot;&gt;MILLISECONDS&lt;/span&gt;)) {&lt;br&gt;            &lt;span style=&quot;color:#cc7832;&quot;&gt;throw new &lt;/span&gt;RuntimeException(&lt;span style=&quot;color:#6a8759;&quot;&gt;&quot;Time out waiting to lock camera opening.&quot;&lt;/span&gt;)&lt;span style=&quot;color:#cc7832;&quot;&gt;;&lt;br&gt;&lt;/span&gt;&lt;span style=&quot;color:#cc7832;&quot;&gt;        &lt;/span&gt;}&lt;br&gt;        manager.openCamera(&lt;span style=&quot;color:#9876aa;&quot;&gt;mCameraId&lt;/span&gt;&lt;span style=&quot;color:#cc7832;&quot;&gt;, &lt;/span&gt;&lt;span style=&quot;color:#9876aa;&quot;&gt;mStateCallback&lt;/span&gt;&lt;span style=&quot;color:#cc7832;&quot;&gt;, &lt;/span&gt;&lt;span style=&quot;color:#9876aa;&quot;&gt;mBackgroundHandler&lt;/span&gt;)&lt;span style=&quot;color:#cc7832;&quot;&gt;;&lt;br&gt;&lt;/span&gt;&lt;span style=&quot;color:#cc7832;&quot;&gt;    &lt;/span&gt;} &lt;span style=&quot;color:#cc7832;&quot;&gt;catch &lt;/span&gt;(CameraAccessException e) {&lt;br&gt;        Log.&lt;span style=&quot;font-style:italic;&quot;&gt;e&lt;/span&gt;(&lt;span style=&quot;color:#9876aa;font-style:italic;&quot;&gt;TAG&lt;/span&gt;&lt;span style=&quot;color:#cc7832;&quot;&gt;, &lt;/span&gt;&lt;span style=&quot;color:#6a8759;&quot;&gt;&quot;Cannot access the camera.&quot; &lt;/span&gt;+ e.toString())&lt;span style=&quot;color:#cc7832;&quot;&gt;;&lt;br&gt;&lt;/span&gt;&lt;span style=&quot;color:#cc7832;&quot;&gt;    &lt;/span&gt;} &lt;span style=&quot;color:#cc7832;&quot;&gt;catch &lt;/span&gt;(InterruptedException e) {&lt;br&gt;        &lt;span style=&quot;color:#cc7832;&quot;&gt;throw new &lt;/span&gt;RuntimeException(&lt;span style=&quot;color:#6a8759;&quot;&gt;&quot;Interrupted while trying to lock camera opening.&quot;&lt;/span&gt;&lt;span style=&quot;color:#cc7832;&quot;&gt;, &lt;/span&gt;e)&lt;span style=&quot;color:#cc7832;&quot;&gt;;&lt;br&gt;&lt;/span&gt;&lt;span style=&quot;color:#cc7832;&quot;&gt;    &lt;/span&gt;}&lt;br&gt;}&lt;/pre&gt;" style="text;whiteSpace=wrap;html=1;" vertex="1" parent="1">
          <mxGeometry x="-680" y="2050" width="270" height="350" as="geometry" />
        </mxCell>
        <UserObject label="&lt;pre style=&quot;background-color:#2b2b2b;color:#a9b7c6;font-family:&#39;JetBrains Mono&#39;,monospace;font-size:9.8pt;&quot;&gt;&lt;span style=&quot;color:#cc7832;&quot;&gt;private final &lt;/span&gt;CameraDevice.StateCallback &lt;span style=&quot;color:#9876aa;&quot;&gt;mStateCallback &lt;/span&gt;= &lt;span style=&quot;color:#cc7832;&quot;&gt;new &lt;/span&gt;CameraDevice.StateCallback() {&lt;br&gt;    &lt;span style=&quot;color:#bbb529;&quot;&gt;@Override&lt;br&gt;&lt;/span&gt;&lt;span style=&quot;color:#bbb529;&quot;&gt;    &lt;/span&gt;&lt;span style=&quot;color:#cc7832;&quot;&gt;public void &lt;/span&gt;&lt;span style=&quot;color:#ffc66d;&quot;&gt;onOpened&lt;/span&gt;(&lt;span style=&quot;color:#bbb529;&quot;&gt;@NonNull &lt;/span&gt;CameraDevice camera) {&lt;br&gt;        Log.&lt;span style=&quot;font-style:italic;&quot;&gt;d&lt;/span&gt;(&lt;span style=&quot;color:#9876aa;font-style:italic;&quot;&gt;TAG&lt;/span&gt;&lt;span style=&quot;color:#cc7832;&quot;&gt;, &lt;/span&gt;&lt;span style=&quot;color:#6a8759;&quot;&gt;&quot;onOpened: 222&quot;&lt;/span&gt;)&lt;span style=&quot;color:#cc7832;&quot;&gt;;&lt;br&gt;&lt;/span&gt;&lt;span style=&quot;color:#cc7832;&quot;&gt;        &lt;/span&gt;&lt;span style=&quot;color:#9876aa;&quot;&gt;mCameraLock&lt;/span&gt;.release()&lt;span style=&quot;color:#cc7832;&quot;&gt;;&lt;br&gt;&lt;/span&gt;&lt;span style=&quot;color:#cc7832;&quot;&gt;        &lt;/span&gt;&lt;span style=&quot;color:#9876aa;&quot;&gt;mCameraDevice &lt;/span&gt;= camera&lt;span style=&quot;color:#cc7832;&quot;&gt;;&lt;br&gt;&lt;/span&gt;&lt;span style=&quot;color:#cc7832;&quot;&gt;        &lt;/span&gt;createCaptureSession()&lt;span style=&quot;color:#cc7832;&quot;&gt;;&lt;br&gt;&lt;/span&gt;&lt;span style=&quot;color:#cc7832;&quot;&gt;    &lt;/span&gt;}&lt;br&gt;&lt;br&gt;    &lt;span style=&quot;color:#bbb529;&quot;&gt;@Override&lt;br&gt;&lt;/span&gt;&lt;span style=&quot;color:#bbb529;&quot;&gt;    &lt;/span&gt;&lt;span style=&quot;color:#cc7832;&quot;&gt;public void &lt;/span&gt;&lt;span style=&quot;color:#ffc66d;&quot;&gt;onDisconnected&lt;/span&gt;(&lt;span style=&quot;color:#bbb529;&quot;&gt;@NonNull &lt;/span&gt;CameraDevice camera) {&lt;br&gt;        &lt;span style=&quot;color:#9876aa;&quot;&gt;mCameraLock&lt;/span&gt;.release()&lt;span style=&quot;color:#cc7832;&quot;&gt;;&lt;br&gt;&lt;/span&gt;&lt;span style=&quot;color:#cc7832;&quot;&gt;        &lt;/span&gt;camera.close()&lt;span style=&quot;color:#cc7832;&quot;&gt;;&lt;br&gt;&lt;/span&gt;&lt;span style=&quot;color:#cc7832;&quot;&gt;        &lt;/span&gt;&lt;span style=&quot;color:#9876aa;&quot;&gt;mCameraDevice &lt;/span&gt;= &lt;span style=&quot;color:#cc7832;&quot;&gt;null;&lt;br&gt;&lt;/span&gt;&lt;span style=&quot;color:#cc7832;&quot;&gt;    &lt;/span&gt;}&lt;br&gt;&lt;br&gt;    &lt;span style=&quot;color:#bbb529;&quot;&gt;@Override&lt;br&gt;&lt;/span&gt;&lt;span style=&quot;color:#bbb529;&quot;&gt;    &lt;/span&gt;&lt;span style=&quot;color:#cc7832;&quot;&gt;public void &lt;/span&gt;&lt;span style=&quot;color:#ffc66d;&quot;&gt;onError&lt;/span&gt;(&lt;span style=&quot;color:#bbb529;&quot;&gt;@NonNull &lt;/span&gt;CameraDevice camera&lt;span style=&quot;color:#cc7832;&quot;&gt;, int &lt;/span&gt;error) {&lt;br&gt;        &lt;span style=&quot;color:#9876aa;&quot;&gt;mCameraLock&lt;/span&gt;.release()&lt;span style=&quot;color:#cc7832;&quot;&gt;;&lt;br&gt;&lt;/span&gt;&lt;span style=&quot;color:#cc7832;&quot;&gt;        &lt;/span&gt;camera.close()&lt;span style=&quot;color:#cc7832;&quot;&gt;;&lt;br&gt;&lt;/span&gt;&lt;span style=&quot;color:#cc7832;&quot;&gt;        &lt;/span&gt;&lt;span style=&quot;color:#9876aa;&quot;&gt;mCameraDevice &lt;/span&gt;= &lt;span style=&quot;color:#cc7832;&quot;&gt;null;&lt;br&gt;&lt;/span&gt;&lt;span style=&quot;color:#cc7832;&quot;&gt;    &lt;/span&gt;}&lt;br&gt;}&lt;span style=&quot;color:#cc7832;&quot;&gt;;&lt;/span&gt;&lt;/pre&gt;" link="&lt;pre style=&quot;background-color:#2b2b2b;color:#a9b7c6;font-family:&#39;JetBrains Mono&#39;,monospace;font-size:9.8pt;&quot;&gt;&lt;span style=&quot;color:#cc7832;&quot;&gt;private final &lt;/span&gt;CameraDevice.StateCallback &lt;span style=&quot;color:#9876aa;&quot;&gt;mStateCallback &lt;/span&gt;= &lt;span style=&quot;color:#cc7832;&quot;&gt;new &lt;/span&gt;CameraDevice.StateCallback() {&lt;br&gt;    &lt;span style=&quot;color:#bbb529;&quot;&gt;@Override&lt;br&gt;&lt;/span&gt;&lt;span style=&quot;color:#bbb529;&quot;&gt;    &lt;/span&gt;&lt;span style=&quot;color:#cc7832;&quot;&gt;public void &lt;/span&gt;&lt;span style=&quot;color:#ffc66d;&quot;&gt;onOpened&lt;/span&gt;(&lt;span style=&quot;color:#bbb529;&quot;&gt;@NonNull &lt;/span&gt;CameraDevice camera) {&lt;br&gt;        Log.&lt;span style=&quot;font-style:italic;&quot;&gt;d&lt;/span&gt;(&lt;span style=&quot;color:#9876aa;font-style:italic;&quot;&gt;TAG&lt;/span&gt;&lt;span style=&quot;color:#cc7832;&quot;&gt;, &lt;/span&gt;&lt;span style=&quot;color:#6a8759;&quot;&gt;&quot;onOpened: 222&quot;&lt;/span&gt;)&lt;span style=&quot;color:#cc7832;&quot;&gt;;&lt;br&gt;&lt;/span&gt;&lt;span style=&quot;color:#cc7832;&quot;&gt;        &lt;/span&gt;&lt;span style=&quot;color:#9876aa;&quot;&gt;mCameraLock&lt;/span&gt;.release()&lt;span style=&quot;color:#cc7832;&quot;&gt;;&lt;br&gt;&lt;/span&gt;&lt;span style=&quot;color:#cc7832;&quot;&gt;        &lt;/span&gt;&lt;span style=&quot;color:#9876aa;&quot;&gt;mCameraDevice &lt;/span&gt;= camera&lt;span style=&quot;color:#cc7832;&quot;&gt;;&lt;br&gt;&lt;/span&gt;&lt;span style=&quot;color:#cc7832;&quot;&gt;        &lt;/span&gt;createCaptureSession()&lt;span style=&quot;color:#cc7832;&quot;&gt;;&lt;br&gt;&lt;/span&gt;&lt;span style=&quot;color:#cc7832;&quot;&gt;    &lt;/span&gt;}&lt;br&gt;&lt;br&gt;    &lt;span style=&quot;color:#bbb529;&quot;&gt;@Override&lt;br&gt;&lt;/span&gt;&lt;span style=&quot;color:#bbb529;&quot;&gt;    &lt;/span&gt;&lt;span style=&quot;color:#cc7832;&quot;&gt;public void &lt;/span&gt;&lt;span style=&quot;color:#ffc66d;&quot;&gt;onDisconnected&lt;/span&gt;(&lt;span style=&quot;color:#bbb529;&quot;&gt;@NonNull &lt;/span&gt;CameraDevice camera) {&lt;br&gt;        &lt;span style=&quot;color:#9876aa;&quot;&gt;mCameraLock&lt;/span&gt;.release()&lt;span style=&quot;color:#cc7832;&quot;&gt;;&lt;br&gt;&lt;/span&gt;&lt;span style=&quot;color:#cc7832;&quot;&gt;        &lt;/span&gt;camera.close()&lt;span style=&quot;color:#cc7832;&quot;&gt;;&lt;br&gt;&lt;/span&gt;&lt;span style=&quot;color:#cc7832;&quot;&gt;        &lt;/span&gt;&lt;span style=&quot;color:#9876aa;&quot;&gt;mCameraDevice &lt;/span&gt;= &lt;span style=&quot;color:#cc7832;&quot;&gt;null;&lt;br&gt;&lt;/span&gt;&lt;span style=&quot;color:#cc7832;&quot;&gt;    &lt;/span&gt;}&lt;br&gt;&lt;br&gt;    &lt;span style=&quot;color:#bbb529;&quot;&gt;@Override&lt;br&gt;&lt;/span&gt;&lt;span style=&quot;color:#bbb529;&quot;&gt;    &lt;/span&gt;&lt;span style=&quot;color:#cc7832;&quot;&gt;public void &lt;/span&gt;&lt;span style=&quot;color:#ffc66d;&quot;&gt;onError&lt;/span&gt;(&lt;span style=&quot;color:#bbb529;&quot;&gt;@NonNull &lt;/span&gt;CameraDevice camera&lt;span style=&quot;color:#cc7832;&quot;&gt;, int &lt;/span&gt;error) {&lt;br&gt;        &lt;span style=&quot;color:#9876aa;&quot;&gt;mCameraLock&lt;/span&gt;.release()&lt;span style=&quot;color:#cc7832;&quot;&gt;;&lt;br&gt;&lt;/span&gt;&lt;span style=&quot;color:#cc7832;&quot;&gt;        &lt;/span&gt;camera.close()&lt;span style=&quot;color:#cc7832;&quot;&gt;;&lt;br&gt;&lt;/span&gt;&lt;span style=&quot;color:#cc7832;&quot;&gt;        &lt;/span&gt;&lt;span style=&quot;color:#9876aa;&quot;&gt;mCameraDevice &lt;/span&gt;= &lt;span style=&quot;color:#cc7832;&quot;&gt;null;&lt;br&gt;&lt;/span&gt;&lt;span style=&quot;color:#cc7832;&quot;&gt;    &lt;/span&gt;}&lt;br&gt;}&lt;span style=&quot;color:#cc7832;&quot;&gt;;&lt;/span&gt;&lt;/pre&gt;" id="cEB_1FA1UiQfRC9kqUsY-21">
          <mxCell style="text;whiteSpace=wrap;html=1;" vertex="1" parent="1">
            <mxGeometry x="300" y="2270" width="300" height="410" as="geometry" />
          </mxCell>
        </UserObject>
        <mxCell id="cEB_1FA1UiQfRC9kqUsY-24" value="" style="endArrow=none;dashed=1;html=1;dashPattern=1 3;strokeWidth=2;rounded=0;fillColor=#ffe6cc;strokeColor=#d79b00;exitX=1;exitY=0.5;exitDx=0;exitDy=0;" edge="1" parent="1" source="cEB_1FA1UiQfRC9kqUsY-18">
          <mxGeometry width="50" height="50" relative="1" as="geometry">
            <mxPoint x="-87" y="2270.004257871064" as="sourcePoint" />
            <mxPoint x="300" y="2313.52" as="targetPoint" />
            <Array as="points">
              <mxPoint x="-320" y="2260" />
            </Array>
          </mxGeometry>
        </mxCell>
        <mxCell id="cEB_1FA1UiQfRC9kqUsY-25" value="&lt;pre style=&quot;background-color:#2b2b2b;color:#a9b7c6;font-family:&#39;JetBrains Mono&#39;,monospace;font-size:9.8pt;&quot;&gt;&lt;span style=&quot;color:#cc7832;&quot;&gt;private void &lt;/span&gt;&lt;span style=&quot;color:#ffc66d;&quot;&gt;createCaptureSession&lt;/span&gt;() {&lt;br&gt;    &lt;span style=&quot;color:#cc7832;&quot;&gt;if &lt;/span&gt;(&lt;span style=&quot;color:#9876aa;&quot;&gt;mCameraDevice &lt;/span&gt;== &lt;span style=&quot;color:#cc7832;&quot;&gt;null &lt;/span&gt;|| &lt;span style=&quot;color:#9876aa;&quot;&gt;mPreviewSurface &lt;/span&gt;== &lt;span style=&quot;color:#cc7832;&quot;&gt;null &lt;/span&gt;|| &lt;span style=&quot;color:#9876aa;&quot;&gt;mCaptureImageReader &lt;/span&gt;== &lt;span style=&quot;color:#cc7832;&quot;&gt;null&lt;/span&gt;)&lt;br&gt;        &lt;span style=&quot;color:#cc7832;&quot;&gt;return;&lt;br&gt;&lt;/span&gt;&lt;span style=&quot;color:#cc7832;&quot;&gt;    try &lt;/span&gt;{&lt;br&gt;        &lt;span style=&quot;color:#9876aa;&quot;&gt;mCameraDevice&lt;/span&gt;.createCaptureSession(Arrays.&lt;span style=&quot;font-style:italic;&quot;&gt;asList&lt;/span&gt;(&lt;span style=&quot;color:#9876aa;&quot;&gt;mPreviewSurface&lt;/span&gt;&lt;span style=&quot;color:#cc7832;&quot;&gt;, &lt;/span&gt;&lt;span style=&quot;color:#9876aa;&quot;&gt;mCaptureImageReader&lt;/span&gt;.getSurface())&lt;span style=&quot;color:#cc7832;&quot;&gt;, &lt;/span&gt;&lt;span style=&quot;color:#9876aa;&quot;&gt;mSessionStateCallback&lt;/span&gt;&lt;span style=&quot;color:#cc7832;&quot;&gt;, &lt;/span&gt;&lt;span style=&quot;color:#9876aa;&quot;&gt;mBackgroundHandler&lt;/span&gt;)&lt;span style=&quot;color:#cc7832;&quot;&gt;;&lt;br&gt;&lt;/span&gt;&lt;span style=&quot;color:#cc7832;&quot;&gt;    &lt;/span&gt;} &lt;span style=&quot;color:#cc7832;&quot;&gt;catch &lt;/span&gt;(CameraAccessException e) {&lt;br&gt;        Log.&lt;span style=&quot;font-style:italic;&quot;&gt;e&lt;/span&gt;(&lt;span style=&quot;color:#9876aa;font-style:italic;&quot;&gt;TAG&lt;/span&gt;&lt;span style=&quot;color:#cc7832;&quot;&gt;, &lt;/span&gt;&lt;span style=&quot;color:#6a8759;&quot;&gt;&quot;createCaptureSession &quot; &lt;/span&gt;+ e.toString())&lt;span style=&quot;color:#cc7832;&quot;&gt;;&lt;br&gt;&lt;/span&gt;&lt;span style=&quot;color:#cc7832;&quot;&gt;    &lt;/span&gt;}&lt;br&gt;}&lt;/pre&gt;" style="text;whiteSpace=wrap;html=1;" vertex="1" parent="1">
          <mxGeometry x="1010" y="2270" width="800" height="190" as="geometry" />
        </mxCell>
        <mxCell id="cEB_1FA1UiQfRC9kqUsY-26" value="&lt;pre style=&quot;background-color:#2b2b2b;color:#a9b7c6;font-family:&#39;JetBrains Mono&#39;,monospace;font-size:9.8pt;&quot;&gt;&lt;span style=&quot;color:#cc7832;&quot;&gt;private &lt;/span&gt;CameraCaptureSession.StateCallback &lt;span style=&quot;color:#9876aa;&quot;&gt;mSessionStateCallback &lt;/span&gt;= &lt;span style=&quot;color:#cc7832;&quot;&gt;new &lt;/span&gt;CameraCaptureSession.StateCallback() {&lt;br&gt;    &lt;span style=&quot;color:#bbb529;&quot;&gt;@Override&lt;br&gt;&lt;/span&gt;&lt;span style=&quot;color:#bbb529;&quot;&gt;    &lt;/span&gt;&lt;span style=&quot;color:#cc7832;&quot;&gt;public void &lt;/span&gt;&lt;span style=&quot;color:#ffc66d;&quot;&gt;onConfigured&lt;/span&gt;(&lt;span style=&quot;color:#bbb529;&quot;&gt;@NonNull &lt;/span&gt;CameraCaptureSession session) {&lt;br&gt;        &lt;span style=&quot;color:#9876aa;&quot;&gt;mCameraCaptureSession &lt;/span&gt;= session&lt;span style=&quot;color:#cc7832;&quot;&gt;;&lt;br&gt;&lt;/span&gt;&lt;span style=&quot;color:#cc7832;&quot;&gt;        try &lt;/span&gt;{&lt;br&gt;            &lt;span style=&quot;color:#9876aa;&quot;&gt;mPreviewRequest &lt;/span&gt;= createPreviewRequest()&lt;span style=&quot;color:#cc7832;&quot;&gt;;&lt;br&gt;&lt;/span&gt;&lt;span style=&quot;color:#cc7832;&quot;&gt;            if &lt;/span&gt;(&lt;span style=&quot;color:#9876aa;&quot;&gt;mPreviewRequest &lt;/span&gt;!= &lt;span style=&quot;color:#cc7832;&quot;&gt;null&lt;/span&gt;) {&lt;br&gt;                session.setRepeatingRequest(&lt;span style=&quot;color:#9876aa;&quot;&gt;mPreviewRequest&lt;/span&gt;&lt;span style=&quot;color:#cc7832;&quot;&gt;, null, &lt;/span&gt;&lt;span style=&quot;color:#9876aa;&quot;&gt;mBackgroundHandler&lt;/span&gt;)&lt;span style=&quot;color:#cc7832;&quot;&gt;;&lt;br&gt;&lt;/span&gt;&lt;span style=&quot;color:#cc7832;&quot;&gt;            &lt;/span&gt;} &lt;span style=&quot;color:#cc7832;&quot;&gt;else &lt;/span&gt;{&lt;br&gt;                Log.&lt;span style=&quot;font-style:italic;&quot;&gt;e&lt;/span&gt;(&lt;span style=&quot;color:#9876aa;font-style:italic;&quot;&gt;TAG&lt;/span&gt;&lt;span style=&quot;color:#cc7832;&quot;&gt;, &lt;/span&gt;&lt;span style=&quot;color:#6a8759;&quot;&gt;&quot;captureRequest is null&quot;&lt;/span&gt;)&lt;span style=&quot;color:#cc7832;&quot;&gt;;&lt;br&gt;&lt;/span&gt;&lt;span style=&quot;color:#cc7832;&quot;&gt;            &lt;/span&gt;}&lt;br&gt;&lt;br&gt;        } &lt;span style=&quot;color:#cc7832;&quot;&gt;catch &lt;/span&gt;(CameraAccessException e) {&lt;br&gt;            Log.&lt;span style=&quot;font-style:italic;&quot;&gt;e&lt;/span&gt;(&lt;span style=&quot;color:#9876aa;font-style:italic;&quot;&gt;TAG&lt;/span&gt;&lt;span style=&quot;color:#cc7832;&quot;&gt;, &lt;/span&gt;&lt;span style=&quot;color:#6a8759;&quot;&gt;&quot;onConfigured &quot; &lt;/span&gt;+ e.toString())&lt;span style=&quot;color:#cc7832;&quot;&gt;;&lt;br&gt;&lt;/span&gt;&lt;span style=&quot;color:#cc7832;&quot;&gt;        &lt;/span&gt;}&lt;br&gt;&lt;br&gt;    }&lt;br&gt;&lt;br&gt;    &lt;span style=&quot;color:#bbb529;&quot;&gt;@Override&lt;br&gt;&lt;/span&gt;&lt;span style=&quot;color:#bbb529;&quot;&gt;    &lt;/span&gt;&lt;span style=&quot;color:#cc7832;&quot;&gt;public void &lt;/span&gt;&lt;span style=&quot;color:#ffc66d;&quot;&gt;onConfigureFailed&lt;/span&gt;(&lt;span style=&quot;color:#bbb529;&quot;&gt;@NonNull &lt;/span&gt;CameraCaptureSession session) {&lt;br&gt;        Log.&lt;span style=&quot;font-style:italic;&quot;&gt;e&lt;/span&gt;(&lt;span style=&quot;color:#9876aa;font-style:italic;&quot;&gt;TAG&lt;/span&gt;&lt;span style=&quot;color:#cc7832;&quot;&gt;, &lt;/span&gt;&lt;span style=&quot;color:#6a8759;&quot;&gt;&quot;onConfigureFailed&quot;&lt;/span&gt;)&lt;span style=&quot;color:#cc7832;&quot;&gt;;&lt;br&gt;&lt;/span&gt;&lt;span style=&quot;color:#cc7832;&quot;&gt;    &lt;/span&gt;}&lt;br&gt;}&lt;span style=&quot;color:#cc7832;&quot;&gt;;&lt;/span&gt;&lt;/pre&gt;" style="text;whiteSpace=wrap;html=1;" vertex="1" parent="1">
          <mxGeometry x="1498" y="2570" width="560" height="410" as="geometry" />
        </mxCell>
        <UserObject label="&lt;pre style=&quot;background-color:#2b2b2b;color:#a9b7c6;font-family:&#39;JetBrains Mono&#39;,monospace;font-size:9.8pt;&quot;&gt;&lt;span style=&quot;color:#cc7832;&quot;&gt;private &lt;/span&gt;CaptureRequest &lt;span style=&quot;color:#ffc66d;&quot;&gt;createPreviewRequest&lt;/span&gt;() {&lt;br&gt;    &lt;span style=&quot;color:#cc7832;&quot;&gt;if &lt;/span&gt;(&lt;span style=&quot;color:#9876aa;&quot;&gt;mCameraDevice &lt;/span&gt;== &lt;span style=&quot;color:#cc7832;&quot;&gt;null &lt;/span&gt;|| &lt;span style=&quot;color:#9876aa;&quot;&gt;mPreviewSurface &lt;/span&gt;== &lt;span style=&quot;color:#cc7832;&quot;&gt;null&lt;/span&gt;)&lt;br&gt;        &lt;span style=&quot;color:#cc7832;&quot;&gt;return null;&lt;br&gt;&lt;/span&gt;&lt;span style=&quot;color:#cc7832;&quot;&gt;    try &lt;/span&gt;{&lt;br&gt;        CaptureRequest.Builder builder = &lt;span style=&quot;color:#9876aa;&quot;&gt;mCameraDevice&lt;/span&gt;.createCaptureRequest(CameraDevice.&lt;span style=&quot;color:#9876aa;font-style:italic;&quot;&gt;TEMPLATE_PREVIEW&lt;/span&gt;)&lt;span style=&quot;color:#cc7832;&quot;&gt;;&lt;br&gt;&lt;/span&gt;&lt;span style=&quot;color:#cc7832;&quot;&gt;        &lt;/span&gt;builder.addTarget(&lt;span style=&quot;color:#9876aa;&quot;&gt;mPreviewSurface&lt;/span&gt;)&lt;span style=&quot;color:#cc7832;&quot;&gt;;&lt;br&gt;&lt;/span&gt;&lt;span style=&quot;color:#cc7832;&quot;&gt;        return &lt;/span&gt;builder.build()&lt;span style=&quot;color:#cc7832;&quot;&gt;;&lt;br&gt;&lt;/span&gt;&lt;span style=&quot;color:#cc7832;&quot;&gt;    &lt;/span&gt;} &lt;span style=&quot;color:#cc7832;&quot;&gt;catch &lt;/span&gt;(CameraAccessException e) {&lt;br&gt;        Log.&lt;span style=&quot;font-style:italic;&quot;&gt;e&lt;/span&gt;(&lt;span style=&quot;color:#9876aa;font-style:italic;&quot;&gt;TAG&lt;/span&gt;&lt;span style=&quot;color:#cc7832;&quot;&gt;, &lt;/span&gt;e.getMessage())&lt;span style=&quot;color:#cc7832;&quot;&gt;;&lt;br&gt;&lt;/span&gt;&lt;span style=&quot;color:#cc7832;&quot;&gt;        return null;&lt;br&gt;&lt;/span&gt;&lt;span style=&quot;color:#cc7832;&quot;&gt;    &lt;/span&gt;}&lt;br&gt;}&lt;/pre&gt;" link="&lt;pre style=&quot;background-color:#2b2b2b;color:#a9b7c6;font-family:&#39;JetBrains Mono&#39;,monospace;font-size:9.8pt;&quot;&gt;&lt;span style=&quot;color:#cc7832;&quot;&gt;private &lt;/span&gt;CaptureRequest &lt;span style=&quot;color:#ffc66d;&quot;&gt;createPreviewRequest&lt;/span&gt;() {&lt;br&gt;    &lt;span style=&quot;color:#cc7832;&quot;&gt;if &lt;/span&gt;(&lt;span style=&quot;color:#9876aa;&quot;&gt;mCameraDevice &lt;/span&gt;== &lt;span style=&quot;color:#cc7832;&quot;&gt;null &lt;/span&gt;|| &lt;span style=&quot;color:#9876aa;&quot;&gt;mPreviewSurface &lt;/span&gt;== &lt;span style=&quot;color:#cc7832;&quot;&gt;null&lt;/span&gt;)&lt;br&gt;        &lt;span style=&quot;color:#cc7832;&quot;&gt;return null;&lt;br&gt;&lt;/span&gt;&lt;span style=&quot;color:#cc7832;&quot;&gt;    try &lt;/span&gt;{&lt;br&gt;        CaptureRequest.Builder builder = &lt;span style=&quot;color:#9876aa;&quot;&gt;mCameraDevice&lt;/span&gt;.createCaptureRequest(CameraDevice.&lt;span style=&quot;color:#9876aa;font-style:italic;&quot;&gt;TEMPLATE_PREVIEW&lt;/span&gt;)&lt;span style=&quot;color:#cc7832;&quot;&gt;;&lt;br&gt;&lt;/span&gt;&lt;span style=&quot;color:#cc7832;&quot;&gt;        &lt;/span&gt;builder.addTarget(&lt;span style=&quot;color:#9876aa;&quot;&gt;mPreviewSurface&lt;/span&gt;)&lt;span style=&quot;color:#cc7832;&quot;&gt;;&lt;br&gt;&lt;/span&gt;&lt;span style=&quot;color:#cc7832;&quot;&gt;        return &lt;/span&gt;builder.build()&lt;span style=&quot;color:#cc7832;&quot;&gt;;&lt;br&gt;&lt;/span&gt;&lt;span style=&quot;color:#cc7832;&quot;&gt;    &lt;/span&gt;} &lt;span style=&quot;color:#cc7832;&quot;&gt;catch &lt;/span&gt;(CameraAccessException e) {&lt;br&gt;        Log.&lt;span style=&quot;font-style:italic;&quot;&gt;e&lt;/span&gt;(&lt;span style=&quot;color:#9876aa;font-style:italic;&quot;&gt;TAG&lt;/span&gt;&lt;span style=&quot;color:#cc7832;&quot;&gt;, &lt;/span&gt;e.getMessage())&lt;span style=&quot;color:#cc7832;&quot;&gt;;&lt;br&gt;&lt;/span&gt;&lt;span style=&quot;color:#cc7832;&quot;&gt;        return null;&lt;br&gt;&lt;/span&gt;&lt;span style=&quot;color:#cc7832;&quot;&gt;    &lt;/span&gt;}&lt;br&gt;}&lt;/pre&gt;" id="cEB_1FA1UiQfRC9kqUsY-27">
          <mxCell style="text;whiteSpace=wrap;html=1;" vertex="1" parent="1">
            <mxGeometry x="2390" y="2580" width="560" height="240" as="geometry" />
          </mxCell>
        </UserObject>
        <mxCell id="cEB_1FA1UiQfRC9kqUsY-28" value="" style="endArrow=none;dashed=1;html=1;dashPattern=1 3;strokeWidth=2;rounded=0;fillColor=#ffe6cc;strokeColor=#d79b00;exitX=1;exitY=0.293;exitDx=0;exitDy=0;exitPerimeter=0;" edge="1" parent="1" source="cEB_1FA1UiQfRC9kqUsY-21">
          <mxGeometry width="50" height="50" relative="1" as="geometry">
            <mxPoint x="870" y="2365.9756097560976" as="sourcePoint" />
            <mxPoint x="1000" y="2320" as="targetPoint" />
            <Array as="points">
              <mxPoint x="1000" y="2320" />
            </Array>
          </mxGeometry>
        </mxCell>
        <mxCell id="cEB_1FA1UiQfRC9kqUsY-29" value="" style="endArrow=none;dashed=1;html=1;rounded=0;entryX=1;entryY=0.5;entryDx=0;entryDy=0;fillColor=#ffe6cc;strokeColor=#d79b00;" edge="1" parent="1" target="cEB_1FA1UiQfRC9kqUsY-25">
          <mxGeometry width="50" height="50" relative="1" as="geometry">
            <mxPoint x="1790" y="2580" as="sourcePoint" />
            <mxPoint x="1900" y="2440" as="targetPoint" />
          </mxGeometry>
        </mxCell>
        <mxCell id="cEB_1FA1UiQfRC9kqUsY-31" value="" style="endArrow=none;dashed=1;html=1;dashPattern=1 3;strokeWidth=2;rounded=0;fillColor=#ffe6cc;strokeColor=#d79b00;exitX=1.011;exitY=0.181;exitDx=0;exitDy=0;exitPerimeter=0;" edge="1" parent="1" source="cEB_1FA1UiQfRC9kqUsY-12">
          <mxGeometry width="50" height="50" relative="1" as="geometry">
            <mxPoint x="-20" y="1600.004257871064" as="sourcePoint" />
            <mxPoint x="367" y="1643.52" as="targetPoint" />
          </mxGeometry>
        </mxCell>
        <mxCell id="cEB_1FA1UiQfRC9kqUsY-32" value="" style="endArrow=none;dashed=1;html=1;dashPattern=1 3;strokeWidth=2;rounded=0;fillColor=#ffe6cc;strokeColor=#d79b00;" edge="1" parent="1" source="cEB_1FA1UiQfRC9kqUsY-12" target="cEB_1FA1UiQfRC9kqUsY-17">
          <mxGeometry width="50" height="50" relative="1" as="geometry">
            <mxPoint x="320" y="2050" as="sourcePoint" />
            <mxPoint x="377" y="1653.52" as="targetPoint" />
            <Array as="points">
              <mxPoint x="-80" y="1820" />
            </Array>
          </mxGeometry>
        </mxCell>
        <mxCell id="cEB_1FA1UiQfRC9kqUsY-34" value="" style="endArrow=none;dashed=1;html=1;rounded=0;entryX=-0.007;entryY=0.438;entryDx=0;entryDy=0;entryPerimeter=0;exitX=0.7;exitY=0.268;exitDx=0;exitDy=0;exitPerimeter=0;fillColor=#ffe6cc;strokeColor=#d79b00;" edge="1" parent="1" source="cEB_1FA1UiQfRC9kqUsY-26" target="cEB_1FA1UiQfRC9kqUsY-27">
          <mxGeometry width="50" height="50" relative="1" as="geometry">
            <mxPoint x="1800" y="2590" as="sourcePoint" />
            <mxPoint x="1820" y="2375" as="targetPoint" />
          </mxGeometry>
        </mxCell>
      </root>
    </mxGraphModel>
  </diagram>
</mxfile>
